<svg width="65" height="65" viewBox="0 0 65 65" fill="none" xmlns="http://www.w3.org/2000/svg">
<rect width="65" height="65" rx="12" fill="#4D38FF" fill-opacity="0.1"/>
<g clip-path="url(#clip0_247_116)">
<path fill-rule="evenodd" clip-rule="evenodd" d="M36.2288 46.0769C36.2288 44.9709 35.3321 44.0743 34.2261 44.0743H31.7739C31.2428 44.0743 30.7334 44.2853 30.3578 44.6608C29.9823 45.0364 29.7712 45.5458 29.7712 46.0769C29.7712 47.1829 30.6679 48.0795 31.7739 48.0795H34.2261C35.3321 48.0795 36.2288 47.1829 36.2288 46.0769ZM21.2101 40.913C21.5446 40.9385 21.9493 40.9532 22.3558 40.9294C22.5723 42.0277 23.1103 43.0463 23.9134 43.8494C24.9795 44.9155 26.4254 45.5144 27.9331 45.5144H28.6973C28.6636 45.6988 28.6462 45.887 28.6462 46.0769C28.6462 46.269 28.6636 46.457 28.6967 46.6394H27.9331C26.1271 46.6394 24.3949 45.922 23.1179 44.6449C22.0991 43.626 21.4364 42.3176 21.2101 40.913ZM20.6378 39.7159C19.7496 39.5662 18.9231 39.1439 18.2779 38.4987C17.4597 37.6804 17 36.5706 17 35.4134V32.7545C17 31.5973 17.4597 30.4875 18.2779 29.6692C19.0962 28.851 20.206 28.3912 21.3632 28.3912H21.6536C22.1179 22.5315 27.0205 17.9207 33 17.9207C38.9795 17.9207 43.8821 22.5315 44.3464 28.3912H44.6368C45.794 28.3912 46.9038 28.851 47.7221 29.6692C48.5403 30.4875 49 31.5973 49 32.7545V35.4134C49 36.5706 48.5403 37.6804 47.7221 38.4987C46.9038 39.317 45.794 39.7767 44.6368 39.7767H43.3493C42.8153 39.7767 42.3824 39.3437 42.3824 38.8098V29.303C42.3824 24.1213 38.1817 19.9207 33 19.9207C27.8183 19.9207 23.6176 24.1213 23.6176 29.303V38.8098C23.6176 39.1868 23.4018 39.5135 23.0869 39.6729C22.2202 39.9737 20.876 39.7561 20.6378 39.7159Z" fill="#4D38FF"/>
</g>
<defs>
<clipPath id="clip0_247_116">
<rect width="32" height="32" fill="white" transform="translate(17 17)"/>
</clipPath>
</defs>
</svg>
