<svg width="29" height="29" viewBox="0 0 29 29" fill="none" xmlns="http://www.w3.org/2000/svg">
<rect width="28.3679" height="28.3679" rx="14.184" fill="#E5E5E5" fill-opacity="0.7"/>
<path d="M10.9544 9.80117C12.3012 10.8122 13.7497 12.8622 14.2816 13.9623C14.8134 12.8622 16.2619 10.8122 17.6087 9.80117C18.5804 9.07165 20.1548 8.50719 20.1548 10.3033C20.1548 10.662 19.9491 13.3167 19.8286 13.7477C19.4093 15.2461 17.8814 15.6282 16.5223 15.397C18.8979 15.8013 19.5022 17.1406 18.1971 18.4798C15.7184 21.0233 14.6345 17.8416 14.3566 17.0263C14.3057 16.8769 14.2819 16.807 14.2815 16.8665C14.2812 16.807 14.2573 16.8769 14.2064 17.0263C13.9287 17.8416 12.8448 21.0234 10.3659 18.4798C9.06075 17.1406 9.66506 15.8012 12.0407 15.397C10.6816 15.6282 9.15373 15.2461 8.73449 13.7477C8.61386 13.3167 8.4082 10.662 8.4082 10.3033C8.4082 8.50719 9.98275 9.07165 10.9544 9.80117Z" fill="black"/>
</svg>
