<svg width="50" height="50" viewBox="0 0 50 50" fill="none" xmlns="http://www.w3.org/2000/svg">
<circle cx="24.6069" cy="24.6069" r="24.6069" fill="#F5F5F5"/>
<path d="M33.9536 20.3224C32.8409 20.3224 31.895 19.9469 31.1161 19.1958C30.3372 18.4447 29.9478 17.5327 29.9478 16.4597C29.9478 15.3867 30.3372 14.4747 31.1161 13.7236C31.895 12.9725 32.8409 12.597 33.9536 12.597C35.0663 12.597 36.0121 12.9725 36.791 13.7236C37.5699 14.4747 37.9594 15.3867 37.9594 16.4597C37.9594 17.5327 37.5699 18.4447 36.791 19.1958C36.0121 19.9469 35.0663 20.3224 33.9536 20.3224ZM13.9247 35.7733C13.1903 35.7733 12.5616 35.5211 12.0386 35.0168C11.5156 34.5125 11.2542 33.9063 11.2542 33.1981V17.7473C11.2542 17.0391 11.5156 16.4329 12.0386 15.9286C12.5616 15.4243 13.1903 15.1721 13.9247 15.1721H27.4108C27.3218 15.6013 27.2773 16.0305 27.2773 16.4597C27.2773 16.8889 27.3218 17.3181 27.4108 17.7473C27.5666 18.434 27.8225 19.0724 28.1786 19.6625C28.5346 20.2527 28.9686 20.7731 29.4804 21.2237L24.6068 24.1851L13.9247 17.7473V20.3224L24.6068 26.7603L31.6502 22.5113C32.0286 22.64 32.4069 22.7366 32.7852 22.801C33.1635 22.8654 33.553 22.8976 33.9536 22.8976C34.6657 22.8976 35.3667 22.7903 36.0566 22.5757C36.7465 22.3611 37.3807 22.0392 37.9594 21.61V33.1981C37.9594 33.9063 37.6979 34.5125 37.1749 35.0168C36.6519 35.5211 36.0232 35.7733 35.2888 35.7733H13.9247Z" fill="black"/>
<circle cx="33.98" cy="16.4244" r="4.17217" fill="#D71313"/>
</svg>
