<svg width="65" height="65" viewBox="0 0 65 65" fill="none" xmlns="http://www.w3.org/2000/svg">
<rect width="65" height="65" rx="12" fill="#AF52DE" fill-opacity="0.1"/>
<path d="M46.9673 34.2143L44.9057 22.7276C44.7236 21.7135 43.8259 21 42.8128 21C42.6902 21 24.7585 24.0951 24.7585 24.0951C23.6013 24.2956 22.8286 25.3797 23.0327 26.5166L23.2314 27.624H39.4148C41.4679 27.624 43.1382 29.2649 43.1382 31.2819V32.7476V36.3036V37L45.2415 36.6357C46.3987 36.4352 47.1714 35.3511 46.9673 34.2143Z" fill="#AF52DE"/>
<path d="M41 38H19V42.8726C19 44.0475 19.961 45 21.1463 45H38.8537C40.039 45 41 44.0475 41 42.8726V38ZM25.39 43.0833H21.7386C21.2941 43.0833 20.9337 42.7262 20.9337 42.2856C20.9337 41.845 21.2941 41.4879 21.7386 41.4879H25.39C25.8345 41.4879 26.1949 41.845 26.1949 42.2856C26.1949 42.7262 25.8346 43.0833 25.39 43.0833Z" fill="#AF52DE"/>
<path d="M19 31H41C40.9454 29.8864 40.0063 29 38.8558 29H21.1442C19.9937 29 19.0546 29.8864 19 31Z" fill="#AF52DE"/>
<path d="M19 33H41V37H19V33Z" fill="#AF52DE"/>
</svg>
