<svg width="26" height="26" viewBox="0 0 26 26" fill="none" xmlns="http://www.w3.org/2000/svg">
<g clip-path="url(#clip0_222_54)">
<path d="M8.98636 0.848432C6.40898 1.74255 4.18625 3.43961 2.64466 5.69035C1.10306 7.94108 0.323863 10.6269 0.421505 13.3532C0.519147 16.0795 1.48849 18.7026 3.18714 20.8373C4.8858 22.972 7.22424 24.5057 9.85897 25.2132C11.995 25.7643 14.233 25.7885 16.3804 25.2837C18.3258 24.8467 20.1244 23.912 21.6 22.5711C23.1358 21.1329 24.2506 19.3033 24.8244 17.279C25.4482 15.0777 25.5592 12.7626 25.1489 10.5117H13.154V15.4874H20.1006C19.9618 16.281 19.6643 17.0384 19.2259 17.7144C18.7875 18.3903 18.2173 18.9708 17.5493 19.4213C16.701 19.9824 15.7448 20.3599 14.742 20.5297C13.7363 20.7167 12.7047 20.7167 11.6989 20.5297C10.6796 20.3189 9.71528 19.8982 8.86746 19.2943C7.50543 18.3302 6.48273 16.9604 5.9453 15.3806C5.39879 13.7712 5.39879 12.0264 5.9453 10.417C6.32785 9.28886 6.96026 8.26171 7.79533 7.4122C8.75096 6.42219 9.96081 5.71452 11.2922 5.36684C12.6235 5.01917 14.0249 5.04491 15.3426 5.44125C16.3719 5.75723 17.3132 6.30931 18.0914 7.05348C18.8747 6.27424 19.6566 5.49298 20.4372 4.70971C20.8402 4.28851 21.2796 3.88747 21.6766 3.4562C20.4887 2.35078 19.0944 1.49061 17.5735 0.925013C14.8039 -0.0806326 11.7734 -0.107658 8.98636 0.848432Z" fill="white"/>
<path d="M8.98613 0.848435C11.773 -0.108305 14.8034 -0.0819909 17.5732 0.923C19.0944 1.49244 20.4881 2.35675 21.6743 3.46628C21.2713 3.89755 20.8461 4.30061 20.4349 4.71979C19.653 5.50037 18.8717 6.27827 18.0912 7.05348C17.313 6.30931 16.3717 5.75724 15.3423 5.44126C14.0251 5.04352 12.6237 5.01629 11.2921 5.36255C9.96036 5.7088 8.74976 6.41516 7.79308 7.40414C6.95802 8.25365 6.32561 9.2808 5.94306 10.4089L1.76538 7.1744C3.26074 4.20904 5.84985 1.94076 8.98613 0.848435Z" fill="#E33629"/>
<path d="M0.656871 10.3787C0.881416 9.26585 1.25421 8.18815 1.76528 7.17441L5.94295 10.417C5.39644 12.0264 5.39644 13.7712 5.94295 15.3806C4.55106 16.4554 3.15851 17.5356 1.76528 18.6212C0.485876 16.0745 0.0956818 13.1729 0.656871 10.3787Z" fill="#F8BD00"/>
<path d="M13.1532 10.5097H25.1482C25.5585 12.7606 25.4475 15.0756 24.8237 17.277C24.2498 19.3013 23.1351 21.1309 21.5993 22.5691C20.2511 21.5171 18.8968 20.4732 17.5486 19.4212C18.217 18.9704 18.7875 18.3892 19.2259 17.7126C19.6643 17.0359 19.9616 16.2777 20.0999 15.4834H13.1532C13.1512 13.8268 13.1532 12.1682 13.1532 10.5097Z" fill="#587DBD"/>
<path d="M1.76343 18.6212C3.15666 17.5464 4.54922 16.4662 5.9411 15.3806C6.4796 16.961 7.50376 18.3308 8.86729 19.2943C9.71775 19.8954 10.6841 20.3127 11.7048 20.5196C12.7105 20.7066 13.7421 20.7066 14.7479 20.5196C15.7507 20.3499 16.7069 19.9723 17.5552 19.4112C18.9034 20.4632 20.2576 21.5071 21.6059 22.5591C20.1305 23.9007 18.3319 24.8361 16.3863 25.2736C14.2388 25.7785 12.0009 25.7543 9.86485 25.2031C8.17545 24.752 6.59743 23.9568 5.22971 22.8674C3.78206 21.7181 2.59968 20.2696 1.76343 18.6212Z" fill="#319F43"/>
</g>
<defs>
<clipPath id="clip0_222_54">
<rect width="25.7956" height="25.7956" fill="white"/>
</clipPath>
</defs>
</svg>
