<svg width="30" height="30" viewBox="0 0 30 30" fill="none" xmlns="http://www.w3.org/2000/svg">
<path fill-rule="evenodd" clip-rule="evenodd" d="M5.56438 19.8C5.88264 19.8 6.18786 19.9265 6.41291 20.1515C6.63795 20.3766 6.76438 20.6818 6.76438 21V23.4C6.76438 23.7183 6.89081 24.0235 7.11585 24.2486C7.34089 24.4736 7.64612 24.6 7.96438 24.6H22.3644C22.6826 24.6 22.9879 24.4736 23.2129 24.2486C23.438 24.0235 23.5644 23.7183 23.5644 23.4V21C23.5644 20.6818 23.6908 20.3766 23.9158 20.1515C24.1409 19.9265 24.4461 19.8 24.7644 19.8C25.0826 19.8 25.3879 19.9265 25.6129 20.1515C25.838 20.3766 25.9644 20.6818 25.9644 21V23.4C25.9644 24.3548 25.5851 25.2705 24.91 25.9456C24.2348 26.6208 23.3192 27 22.3644 27H7.96438C7.0096 27 6.09393 26.6208 5.4188 25.9456C4.74366 25.2705 4.36438 24.3548 4.36438 23.4V21C4.36438 20.6818 4.49081 20.3766 4.71585 20.1515C4.9409 19.9265 5.24612 19.8 5.56438 19.8Z" fill="#D71212"/>
<path fill-rule="evenodd" clip-rule="evenodd" d="M8.316 12.9516C8.54104 12.7266 8.84621 12.6002 9.1644 12.6002C9.4826 12.6002 9.78777 12.7266 10.0128 12.9516L15.1644 18.1032L20.316 12.9516C20.4267 12.8369 20.5591 12.7455 20.7055 12.6826C20.8519 12.6197 21.0094 12.5866 21.1687 12.5853C21.3281 12.5839 21.4861 12.6142 21.6335 12.6746C21.781 12.7349 21.915 12.824 22.0277 12.9367C22.1403 13.0493 22.2295 13.1833 22.2898 13.3308C22.3501 13.4783 22.3805 13.6363 22.3791 13.7956C22.3777 13.955 22.3446 14.1124 22.2817 14.2588C22.2188 14.4052 22.1274 14.5377 22.0128 14.6484L16.0128 20.6484C15.7878 20.8733 15.4826 20.9997 15.1644 20.9997C14.8462 20.9997 14.541 20.8733 14.316 20.6484L8.316 14.6484C8.09104 14.4233 7.96466 14.1181 7.96466 13.8C7.96466 13.4818 8.09104 13.1766 8.316 12.9516Z" fill="#D71212"/>
<path fill-rule="evenodd" clip-rule="evenodd" d="M15.1644 4.19995C15.4826 4.19995 15.7878 4.32638 16.0129 4.55142C16.2379 4.77647 16.3644 5.08169 16.3644 5.39995V19.8C16.3644 20.1182 16.2379 20.4234 16.0129 20.6485C15.7878 20.8735 15.4826 21 15.1644 21C14.8461 21 14.5409 20.8735 14.3158 20.6485C14.0908 20.4234 13.9644 20.1182 13.9644 19.8V5.39995C13.9644 5.08169 14.0908 4.77647 14.3158 4.55142C14.5409 4.32638 14.8461 4.19995 15.1644 4.19995Z" fill="#D71212"/>
</svg>
