<svg width="29" height="29" viewBox="0 0 29 29" fill="none" xmlns="http://www.w3.org/2000/svg">
<rect x="0.00012207" width="28.3679" height="28.3679" rx="14.184" fill="#E5E5E5" fill-opacity="0.7"/>
<g clip-path="url(#clip0_222_325)">
<path d="M20.5438 14.0842C20.5438 10.5161 17.6513 7.62354 14.0832 7.62354C10.5151 7.62354 7.62256 10.5161 7.62256 14.0842C7.62256 17.1141 9.70844 19.6564 12.5225 20.3546V16.0584H11.1902V14.0842H12.5225V13.2335C12.5225 11.0345 13.5176 10.0152 15.6765 10.0152C16.0858 10.0152 16.792 10.0955 17.0809 10.1757V11.9654C16.9285 11.9494 16.6636 11.9414 16.3346 11.9414C15.2752 11.9414 14.8659 12.3426 14.8659 13.386V14.0842H16.9762L16.6137 16.0584H14.8659V20.4975C18.0648 20.1111 20.5438 17.3873 20.5438 14.0842Z" fill="black"/>
</g>
<defs>
<clipPath id="clip0_222_325">
<rect width="14.0959" height="14.0959" fill="white" transform="translate(7.03589 7.03516)"/>
</clipPath>
</defs>
</svg>
