<svg width="39" height="40" viewBox="0 0 39 40" fill="none" xmlns="http://www.w3.org/2000/svg">
<path d="M0.214676 4.99495C0.172124 5.02509 0.257229 4.9648 0.214676 4.99495V4.99495Z" fill="url(#paint0_linear_222_34)"/>
<path d="M38.534 5.01187L38.4926 4.99457C34.7818 2.56073 29.7119 0.847808 23.9742 0.242231C22.4793 0.086511 20.937 0 19.3593 0C17.7816 0 16.133 0.086511 14.5849 0.259533C8.95359 0.876645 3.88368 2.61263 0.214194 4.99457C1.65008 6.25763 3.13914 7.38804 4.72866 8.32236C3.13323 7.38227 1.65599 6.2634 0.214194 4.99457C-0.979421 20.9991 2.47143 34.293 19.3416 39.8239C36.2177 34.293 39.7217 21.0164 38.5281 5.0061L38.534 5.01187ZM34.0018 8.4031C34.0668 10.2717 34.055 12.0769 33.9368 13.7956L29.0205 15.9411L19.3416 20.1628L12.1858 23.283C12.6703 24.0443 13.2258 24.7652 13.858 25.4458C14.9985 26.6569 16.393 27.7239 18.0889 28.6409C18.4907 28.8601 18.9043 29.0677 19.3416 29.2638H19.3593C24.376 26.9453 27.0587 23.5137 28.3469 19.1247L33.6236 16.8235C32.7314 22.9081 30.3028 27.8738 25.3747 31.4323C23.6729 32.6608 21.6756 33.7162 19.3416 34.5986C14.7798 32.88 11.5004 30.4749 9.21949 27.4644C8.67587 26.7492 8.18542 25.9994 7.75406 25.2151C6.96817 23.8021 6.35363 22.2795 5.88682 20.6646C4.84093 17.0484 4.52776 12.9305 4.6873 8.4031L4.78184 8.36273C9.44403 6.32684 14.3899 5.31178 19.3416 5.31178C24.2933 5.31178 29.2391 6.32684 33.9013 8.36273H33.9191C35.0536 7.70525 36.1527 6.95548 37.2045 6.11921C36.1467 6.95548 35.0477 7.70525 33.9191 8.3685L33.9959 8.4031H34.0018ZM37.9785 5.4848C38.1617 5.32908 38.3449 5.17336 38.5222 5.01187C38.339 5.17336 38.1617 5.32908 37.9785 5.4848Z" fill="url(#paint1_linear_222_34)"/>
<path d="M27.9098 11.852C22.5149 9.49891 16.4523 9.49891 11.0574 11.852L9.4856 12.5383C9.53287 15.0875 9.79877 17.4406 10.3779 19.5688L19.4836 15.6008L27.9866 11.8924L27.9335 11.8693L27.9098 11.8578V11.852Z" fill="url(#paint2_linear_222_34)"/>
<defs>
<linearGradient id="paint0_linear_222_34" x1="0.202519" y1="4.99495" x2="0.226834" y2="4.99495" gradientUnits="userSpaceOnUse">
<stop stop-color="#B71D1D"/>
<stop offset="1" stop-color="#D81212"/>
</linearGradient>
<linearGradient id="paint1_linear_222_34" x1="0.0014708" y1="19.9148" x2="38.7467" y2="19.9148" gradientUnits="userSpaceOnUse">
<stop stop-color="#B71D1D"/>
<stop offset="1" stop-color="#D81212"/>
</linearGradient>
<linearGradient id="paint2_linear_222_34" x1="9.4915" y1="14.828" x2="27.9866" y2="14.828" gradientUnits="userSpaceOnUse">
<stop stop-color="#B71D1D"/>
<stop offset="1" stop-color="#D81212"/>
</linearGradient>
</defs>
</svg>
