<svg width="20" height="20" viewBox="0 0 20 20" fill="none" xmlns="http://www.w3.org/2000/svg">
<g clip-path="url(#clip0_222_357)">
<path d="M20.039 5.41018V1.75675C20.039 1.58585 19.9279 1.43479 19.7648 1.38382L15.3991 0.020752C15.3591 0.00717167 15.3168 0 15.2736 0C15.2735 0 15.2732 0 15.273 0C15.2299 0 15.1876 0.00717167 15.1478 0.020752L10.7819 1.38382C10.6188 1.43479 10.5077 1.5857 10.5077 1.7566V3.73674C10.4137 3.70958 10.3147 3.69478 10.2121 3.69478H8.46653C7.99045 3.69478 7.58639 4.00758 7.44815 4.43819H6.97436C6.25414 4.43819 5.6534 4.95775 5.5263 5.64165C4.10158 6.33837 2.89552 7.41138 2.03553 8.74897C1.13816 10.1445 0.663912 11.7629 0.663912 13.4293V15.9458C0.31128 15.9968 0.0390625 16.3001 0.0390625 16.6666C0.0390625 18.5047 1.53428 19.9999 3.37236 19.9999H15.4401C17.2781 19.9999 18.7734 18.5047 18.7734 16.6666C18.7734 16.2646 18.4463 15.9376 18.0442 15.9376H17.9938V13.4293C17.9938 12.3337 17.7924 11.2705 17.3963 10.2633C19.0021 9.22275 20.039 7.41656 20.039 5.41018ZM17.2126 13.4293V15.9376H11.1638C10.9482 15.9376 10.7734 16.1124 10.7734 16.3282C10.7734 16.5439 10.9482 16.7188 11.1638 16.7188H17.9916C17.9638 18.102 16.8299 19.2188 15.4401 19.2188H3.37221C1.98243 19.2188 0.848697 18.102 0.820773 16.7188H7.6485C7.86411 16.7188 8.03912 16.5439 8.03912 16.3282C8.03912 16.1124 7.86411 15.9376 7.6485 15.9376H1.44501V13.4293C1.44501 10.5722 3.02217 7.91751 5.50097 6.53613V10.6469C5.50097 10.8625 5.67599 11.0375 5.89159 11.0375C6.10735 11.0375 6.28222 10.8625 6.28222 10.6469V5.91158C6.28222 5.52996 6.59274 5.21959 6.97436 5.21959H7.39718V13.3239C7.39718 13.3909 7.34286 13.4452 7.27603 13.4452H6.24697C6.03121 13.4452 5.85635 13.62 5.85635 13.8358C5.85635 14.0516 6.03121 14.2264 6.24697 14.2264H7.27603C7.77362 14.2264 8.17844 13.8216 8.17844 13.3239V4.76412C8.17844 4.60527 8.30768 4.47603 8.46653 4.47603H10.2121C10.3708 4.47603 10.5001 4.60527 10.5001 4.76412V13.3239C10.5001 13.8216 10.9049 14.2264 11.4026 14.2264H12.4317C12.6473 14.2264 12.8223 14.0516 12.8223 13.8358C12.8223 13.62 12.6473 13.4452 12.4317 13.4452H11.4026C11.3356 13.4452 11.2813 13.3907 11.2813 13.3239V8.29547C12.0992 9.71149 13.5045 10.7621 15.1998 11.0869C15.2241 11.0915 15.2488 11.0938 15.2733 11.0938C15.2979 11.0938 15.3226 11.0915 15.3469 11.0869C15.8257 10.9951 16.2812 10.8452 16.7072 10.6458C17.0426 11.5331 17.2126 12.4674 17.2126 13.4293ZM15.2733 10.3049C12.96 9.82578 11.289 7.77927 11.289 5.41018V2.04392L15.2733 0.800021L19.2577 2.04392V5.41018C19.2577 7.77927 17.5867 9.82578 15.2733 10.3049Z" fill="#D81212"/>
<path d="M18.2021 2.53281L15.3896 1.65482C15.3138 1.63101 15.2326 1.63101 15.1568 1.65482L12.3443 2.53281C12.1812 2.58377 12.0701 2.73484 12.0701 2.90574V5.41017C12.0701 7.30349 13.3446 8.97571 15.1698 9.47681C15.2036 9.48611 15.2384 9.49084 15.2732 9.49084C15.308 9.49084 15.3428 9.48611 15.3765 9.47681C17.2016 8.97571 18.4763 7.30334 18.4763 5.41017V2.90574C18.4763 2.73484 18.3653 2.58377 18.2021 2.53281ZM17.6951 5.41017C17.6951 6.91668 16.7045 8.25152 15.2732 8.69342C13.8419 8.25152 12.8513 6.91668 12.8513 5.41017V3.19306L15.2732 2.43683L17.6951 3.19306V5.41017Z" fill="#D81212"/>
<path d="M14.2994 5.09171C14.1468 4.93927 13.8996 4.93927 13.747 5.09171C13.5944 5.2443 13.5944 5.49164 13.747 5.64423L14.647 6.5442C14.7233 6.62049 14.8232 6.65864 14.9232 6.65864C15.0231 6.65864 15.1231 6.62049 15.1993 6.5442L16.7994 4.94416C16.952 4.79172 16.952 4.54437 16.7994 4.39179C16.6468 4.2392 16.3996 4.2392 16.2469 4.39179L14.9232 5.71549L14.2994 5.09171Z" fill="#D81212"/>
<path d="M9.40601 15.9376C9.30332 15.9376 9.20245 15.9794 9.12982 16.052C9.05719 16.1246 9.01538 16.2255 9.01538 16.3282C9.01538 16.4309 9.05719 16.5317 9.12982 16.6044C9.20245 16.677 9.30332 16.7188 9.40601 16.7188C9.50916 16.7188 9.60956 16.677 9.68219 16.6044C9.75482 16.5317 9.79663 16.4309 9.79663 16.3282C9.79663 16.2255 9.75482 16.1246 9.68219 16.052C9.60956 15.9794 9.5087 15.9376 9.40601 15.9376Z" fill="#D81212"/>
</g>
<defs>
<clipPath id="clip0_222_357">
<rect width="20" height="20" fill="white"/>
</clipPath>
</defs>
</svg>
