<svg width="29" height="29" viewBox="0 0 29 29" fill="none" xmlns="http://www.w3.org/2000/svg">
<rect width="28.3679" height="28.3679" rx="14.184" fill="#E5E5E5" fill-opacity="0.7"/>
<path fill-rule="evenodd" clip-rule="evenodd" d="M14.0839 8.20947C10.8401 8.20947 8.21057 10.839 8.21057 14.0828C8.21057 17.3265 10.8401 19.9561 14.0839 19.9561C17.3276 19.9561 19.9572 17.3265 19.9572 14.0828C19.9572 10.839 17.3276 8.20947 14.0839 8.20947ZM12.2549 9.43613C11.096 9.89265 10.1491 10.7702 9.60243 11.8803H11.3522C11.4845 11.2006 11.6771 10.5828 11.9186 10.0573C12.0185 9.83974 12.1307 9.63056 12.2549 9.43613ZM9.09157 14.0828C9.09157 13.6253 9.1531 13.1822 9.26834 12.7613H11.2188C11.1719 13.187 11.1472 13.6295 11.1472 14.0828C11.1472 14.5361 11.1719 14.9786 11.2188 15.4043H9.26834C9.1531 14.9834 9.09157 14.5403 9.09157 14.0828ZM9.60243 16.2853C10.1491 17.3954 11.096 18.2729 12.2549 18.7295C12.1307 18.535 12.0185 18.3258 11.9186 18.1083C11.6771 17.5827 11.4845 16.9649 11.3522 16.2853H9.60243ZM12.2514 16.2853C12.3692 16.8346 12.5289 17.3265 12.7191 17.7404C13.1563 18.6919 13.671 19.0751 14.0839 19.0751C14.4967 19.0751 15.0115 18.6919 15.4487 17.7404C15.6388 17.3265 15.7986 16.8346 15.9164 16.2853H12.2514ZM16.8156 16.2853C16.6832 16.9649 16.4906 17.5827 16.2492 18.1083C16.1492 18.3258 16.037 18.535 15.9129 18.7295C17.0718 18.2729 18.0187 17.3954 18.5653 16.2853H16.8156ZM18.8994 15.4043H16.9489C16.9959 14.9786 17.0205 14.5361 17.0205 14.0828C17.0205 13.6295 16.9959 13.187 16.9489 12.7613H18.8994C19.0146 13.1822 19.0762 13.6253 19.0762 14.0828C19.0762 14.5403 19.0146 14.9834 18.8994 15.4043ZM16.0622 15.4043H12.1056C12.0553 14.9843 12.0282 14.5414 12.0282 14.0828C12.0282 13.6241 12.0553 13.1813 12.1056 12.7613H16.0622C16.1125 13.1813 16.1395 13.6241 16.1395 14.0828C16.1395 14.5414 16.1125 14.9843 16.0622 15.4043ZM16.8156 11.8803H18.5653C18.0187 10.7702 17.0718 9.89265 15.9129 9.43613C16.037 9.63056 16.1492 9.83975 16.2492 10.0573C16.4906 10.5828 16.6832 11.2006 16.8156 11.8803ZM12.7191 10.4251C12.5289 10.8391 12.3692 11.331 12.2514 11.8803H15.9164C15.7986 11.331 15.6388 10.8391 15.4487 10.4251C15.0115 9.47365 14.4967 9.09047 14.0839 9.09047C13.671 9.09047 13.1563 9.47365 12.7191 10.4251Z" fill="black"/>
</svg>
