<svg width="29" height="29" viewBox="0 0 29 29" fill="none" xmlns="http://www.w3.org/2000/svg">
<rect width="28.3679" height="28.3679" rx="14.184" fill="#E5E5E5" fill-opacity="0.7"/>
<path d="M14.0828 8.20947C12.4918 8.20947 12.2863 8.20947 11.6566 8.24262C11.1695 8.252 10.6876 8.3439 10.2313 8.51441C9.84684 8.66687 9.52202 8.86574 9.19057 9.1972C8.86574 9.52202 8.66024 9.84684 8.51441 10.2379C8.36857 10.6092 8.26913 11.0334 8.24262 11.6632C8.2161 12.2863 8.20947 12.4852 8.20947 14.0828C8.20947 15.6737 8.20947 15.8726 8.24262 16.5024C8.26913 17.1321 8.3752 17.563 8.51441 17.9343C8.66687 18.3187 8.86574 18.6435 9.19057 18.975C9.52202 19.2998 9.84684 19.5053 10.2313 19.6511C10.6092 19.797 11.0334 19.8964 11.6566 19.923C12.2863 19.9495 12.4852 19.9561 14.0828 19.9561C15.6737 19.9561 15.8726 19.9561 16.5024 19.923C17.1255 19.8964 17.5564 19.7903 17.9276 19.6511C18.3196 19.5042 18.6748 19.2734 18.9684 18.975C19.2998 18.6435 19.4987 18.3121 19.6445 17.9343C19.7903 17.5564 19.8898 17.1321 19.923 16.5024C19.9495 15.8793 19.9561 15.6804 19.9561 14.0828C19.9561 12.4918 19.9495 12.2929 19.923 11.6632C19.9106 11.1759 19.8164 10.6941 19.6445 10.2379C19.4973 9.84606 19.2666 9.49092 18.9684 9.1972C18.6369 8.86574 18.3187 8.66687 17.9276 8.51441C17.4709 8.34641 16.989 8.25676 16.5024 8.24925C15.8726 8.2161 15.6737 8.20947 14.0828 8.20947ZM13.5525 9.27012H14.0828C15.6473 9.27012 15.8329 9.27012 16.456 9.30326C16.827 9.30696 17.1948 9.37423 17.5431 9.50213C17.8216 9.6082 18.0138 9.73415 18.2193 9.93964C18.4248 10.1451 18.5507 10.344 18.6634 10.6158C18.743 10.8279 18.8358 11.1329 18.8623 11.7096C18.8888 12.3261 18.8954 12.5117 18.8954 14.0828C18.8954 15.6473 18.8954 15.8329 18.8623 16.456C18.8586 16.827 18.7914 17.1948 18.6634 17.5431C18.5574 17.8216 18.4248 18.0138 18.2193 18.2193C18.0204 18.4248 17.8216 18.5507 17.5431 18.6568C17.1952 18.787 16.8274 18.8565 16.456 18.8623C15.8329 18.8888 15.6473 18.8954 14.0828 18.8954C12.5117 18.8954 12.3261 18.8954 11.7096 18.8623C11.3363 18.8591 10.9663 18.7918 10.6158 18.6634C10.344 18.5507 10.1518 18.4248 9.93964 18.2193C9.74077 18.0204 9.6082 17.8216 9.50213 17.5431C9.37423 17.1948 9.30696 16.827 9.30326 16.456C9.27012 15.8329 9.26349 15.6473 9.26349 14.0828C9.26349 12.5117 9.27012 12.3261 9.29663 11.7096C9.29957 11.3363 9.36685 10.9663 9.4955 10.6158C9.6082 10.344 9.73415 10.1518 9.93964 9.93964C10.1451 9.74077 10.3374 9.6082 10.6158 9.50213C10.9663 9.37347 11.3363 9.3062 11.7096 9.30326C12.2465 9.27675 12.4587 9.27012 13.5525 9.26348V9.27012ZM17.2183 10.2446C17.126 10.2446 17.0346 10.2628 16.9494 10.2981C16.8641 10.3334 16.7867 10.3851 16.7214 10.4504C16.6562 10.5156 16.6044 10.5931 16.5691 10.6784C16.5338 10.7636 16.5156 10.855 16.5156 10.9473C16.5156 11.0395 16.5338 11.1309 16.5691 11.2162C16.6044 11.3014 16.6562 11.3789 16.7214 11.4441C16.7867 11.5094 16.8641 11.5611 16.9494 11.5964C17.0346 11.6318 17.126 11.6499 17.2183 11.6499C17.4047 11.6499 17.5834 11.5759 17.7152 11.4441C17.8469 11.3123 17.921 11.1336 17.921 10.9473C17.921 10.7609 17.8469 10.5822 17.7152 10.4504C17.5834 10.3186 17.4047 10.2446 17.2183 10.2446ZM14.0828 11.0666C13.6867 11.0666 13.2945 11.1446 12.9286 11.2962C12.5626 11.4478 12.2301 11.6699 11.95 11.95C11.6699 12.2301 11.4478 12.5626 11.2962 12.9286C11.1446 13.2945 11.0666 13.6867 11.0666 14.0828C11.0666 14.4789 11.1446 14.8711 11.2962 15.237C11.4478 15.603 11.6699 15.9355 11.95 16.2156C12.2301 16.4957 12.5626 16.7178 12.9286 16.8694C13.2945 17.021 13.6867 17.099 14.0828 17.099C14.8827 17.099 15.6499 16.7812 16.2156 16.2156C16.7812 15.6499 17.099 14.8827 17.099 14.0828C17.099 13.2828 16.7812 12.5157 16.2156 11.95C15.6499 11.3844 14.8827 11.0666 14.0828 11.0666ZM14.0828 12.1272C14.3396 12.1272 14.5939 12.1778 14.8312 12.2761C15.0684 12.3744 15.284 12.5184 15.4656 12.7C15.6471 12.8816 15.7912 13.0972 15.8895 13.3344C15.9877 13.5717 16.0384 13.826 16.0384 14.0828C16.0384 14.3396 15.9877 14.5939 15.8895 14.8312C15.7912 15.0684 15.6471 15.284 15.4656 15.4656C15.284 15.6471 15.0684 15.7912 14.8312 15.8895C14.5939 15.9877 14.3396 16.0384 14.0828 16.0384C13.5641 16.0384 13.0668 15.8323 12.7 15.4656C12.3333 15.0988 12.1272 14.6015 12.1272 14.0828C12.1272 13.5641 12.3333 13.0668 12.7 12.7C13.0668 12.3333 13.5641 12.1272 14.0828 12.1272Z" fill="black"/>
</svg>
