<svg width="29" height="29" viewBox="0 0 29 29" fill="none" xmlns="http://www.w3.org/2000/svg">
<rect width="28.3679" height="28.3679" rx="14.184" fill="#E5E5E5" fill-opacity="0.7"/>
<path fill-rule="evenodd" clip-rule="evenodd" d="M12.4926 12.4926H14.4366V13.4834H14.4579C14.7542 12.9491 15.6296 12.4066 16.712 12.4066C18.7894 12.4066 19.3691 13.5096 19.3691 15.5526V19.3691H17.3061V15.9287C17.3061 15.0142 16.941 14.2117 16.0869 14.2117C15.05 14.2117 14.5555 14.9138 14.5555 16.0663V19.3691H12.4926V12.4926ZM9.0543 19.3691H11.1173V12.4926H9.0543V19.3691ZM11.3751 10.0858C11.3752 10.2551 11.3419 10.4227 11.2772 10.5792C11.2125 10.7356 11.1176 10.8777 10.9979 10.9975C10.8782 11.1172 10.7362 11.2123 10.5798 11.2771C10.4234 11.3419 10.2558 11.3753 10.0865 11.3754C9.91717 11.3754 9.74952 11.3421 9.59311 11.2774C9.43668 11.2126 9.29455 11.1177 9.17481 10.998C9.05509 10.8783 8.9601 10.7362 8.8953 10.5798C8.83049 10.4234 8.79713 10.2558 8.79712 10.0865C8.79709 9.74465 8.93284 9.41681 9.1745 9.17506C9.41617 8.93331 9.74396 8.79746 10.0858 8.79736C10.4276 8.79727 10.7555 8.93295 10.9973 9.17458C11.239 9.41619 11.375 9.74396 11.3751 10.0858Z" fill="black"/>
</svg>
