<svg width="248" height="40" viewBox="0 0 248 40" fill="none" xmlns="http://www.w3.org/2000/svg">
<path d="M68.3746 14.1359V22.1411H52.3021V24.3038H68.3746V29.8232H52.0067C49.0876 29.8232 46.6472 27.4413 46.6472 24.5922V14.1359C46.6472 11.2868 49.0876 8.90487 52.0067 8.90487H63.021C65.9755 8.90487 68.3805 11.2868 68.3805 14.1359H68.3746ZM62.7197 17.308V14.4243H52.3021V17.308H62.7197ZM72.4399 3.85839H78.2012V29.8232H72.4399V3.85839ZM102.924 14.1359V29.8232H97.2695V14.4243H86.852V29.8232H81.1971V8.90487H97.565C100.519 8.90487 102.924 11.2868 102.924 14.1359ZM127.719 15.1798H122.028V14.4243H111.611V16.587H122.33C125.325 16.587 127.724 18.969 127.724 21.8181V24.598C127.724 27.4471 125.325 29.829 122.33 29.829H111.321C108.402 29.829 105.962 27.4471 105.962 24.598V23.5541H111.617V24.3096H122.034V22.1468H111.321C108.402 22.1468 105.962 19.7649 105.962 16.9158V14.1417C105.962 11.2926 108.402 8.91063 111.321 8.91063H122.33C125.325 8.91063 127.724 11.2926 127.724 14.1417V15.1856L127.719 15.1798ZM151.999 8.90487V24.5922C151.999 27.4413 149.594 29.8232 146.639 29.8232H135.625C132.67 29.8232 130.265 27.4413 130.265 24.5922V8.90487H135.92V24.3038H146.338V8.90487H151.993H151.999ZM173.135 8.90487V14.4243H161.571V29.8232H155.916V14.1359C155.916 11.2868 158.357 8.90487 161.311 8.90487H173.135ZM197.817 14.1359V29.8232H181.449C178.494 29.8232 176.09 27.4413 176.09 24.5922V16.587H192.162V14.4243H176.09V8.90487H192.457C195.412 8.90487 197.817 11.2868 197.817 14.1359ZM192.162 21.4201H181.744V24.3038H192.162V21.4201ZM223.202 14.1359V29.8232H217.547V14.4243H207.129V29.8232H201.475V8.90487H217.842C220.797 8.90487 223.202 11.2868 223.202 14.1359ZM247.996 15.1798H242.306V14.4243H231.888V16.587H242.607C245.603 16.587 248.002 18.969 248.002 21.8181V24.598C248.002 27.4471 245.603 29.829 242.607 29.829H231.599C228.68 29.829 226.239 27.4471 226.239 24.598V23.5541H231.894V24.3096H242.312V22.1468H231.599C228.68 22.1468 226.239 19.7649 226.239 16.9158V14.1417C226.239 11.2926 228.68 8.91063 231.599 8.91063H242.607C245.603 8.91063 248.002 11.2926 248.002 14.1417V15.1856L247.996 15.1798Z" fill="url(#paint0_linear_222_30)"/>
<path d="M0.214676 4.99495C0.172124 5.02509 0.257229 4.9648 0.214676 4.99495V4.99495Z" fill="url(#paint1_linear_222_30)"/>
<path d="M38.534 5.01187L38.4926 4.99457C34.7818 2.56073 29.7119 0.847808 23.9742 0.242231C22.4793 0.086511 20.937 0 19.3593 0C17.7816 0 16.133 0.086511 14.5849 0.259533C8.95359 0.876645 3.88368 2.61263 0.214194 4.99457C1.65008 6.25763 3.13914 7.38804 4.72866 8.32236C3.13323 7.38227 1.65599 6.2634 0.214194 4.99457C-0.979421 20.9991 2.47143 34.293 19.3416 39.8239C36.2177 34.293 39.7217 21.0164 38.5281 5.0061L38.534 5.01187ZM34.0018 8.4031C34.0668 10.2717 34.055 12.0769 33.9368 13.7956L29.0205 15.9411L19.3416 20.1628L12.1858 23.283C12.6703 24.0443 13.2258 24.7652 13.858 25.4458C14.9985 26.6569 16.393 27.7239 18.0889 28.6409C18.4907 28.8601 18.9043 29.0677 19.3416 29.2638H19.3593C24.376 26.9453 27.0587 23.5137 28.3469 19.1247L33.6236 16.8235C32.7314 22.9081 30.3028 27.8738 25.3747 31.4323C23.6729 32.6608 21.6756 33.7162 19.3416 34.5986C14.7798 32.88 11.5004 30.4749 9.21949 27.4644C8.67587 26.7492 8.18542 25.9994 7.75406 25.2151C6.96817 23.8021 6.35363 22.2795 5.88682 20.6646C4.84093 17.0484 4.52776 12.9305 4.6873 8.4031L4.78184 8.36273C9.44403 6.32684 14.3899 5.31178 19.3416 5.31178C24.2933 5.31178 29.2391 6.32684 33.9013 8.36273H33.9191C35.0536 7.70525 36.1527 6.95548 37.2045 6.11921C36.1467 6.95548 35.0477 7.70525 33.9191 8.3685L33.9959 8.4031H34.0018ZM37.9785 5.4848C38.1617 5.32908 38.3449 5.17336 38.5222 5.01187C38.339 5.17336 38.1617 5.32908 37.9785 5.4848Z" fill="url(#paint2_linear_222_30)"/>
<path d="M27.9098 11.852C22.5149 9.49891 16.4523 9.49891 11.0574 11.852L9.4856 12.5383C9.53287 15.0875 9.79877 17.4406 10.3779 19.5688L19.4836 15.6008L27.9866 11.8924L27.9335 11.8693L27.9098 11.8578V11.852Z" fill="url(#paint3_linear_222_30)"/>
<defs>
<linearGradient id="paint0_linear_222_30" x1="46.6472" y1="16.8408" x2="247.996" y2="16.8408" gradientUnits="userSpaceOnUse">
<stop stop-color="#D81212"/>
<stop offset="1" stop-color="#B71D1D"/>
</linearGradient>
<linearGradient id="paint1_linear_222_30" x1="0.202519" y1="4.99495" x2="0.226834" y2="4.99495" gradientUnits="userSpaceOnUse">
<stop stop-color="#B71D1D"/>
<stop offset="1" stop-color="#D81212"/>
</linearGradient>
<linearGradient id="paint2_linear_222_30" x1="0.0014708" y1="19.9148" x2="38.7467" y2="19.9148" gradientUnits="userSpaceOnUse">
<stop stop-color="#B71D1D"/>
<stop offset="1" stop-color="#D81212"/>
</linearGradient>
<linearGradient id="paint3_linear_222_30" x1="9.4915" y1="14.828" x2="27.9866" y2="14.828" gradientUnits="userSpaceOnUse">
<stop stop-color="#B71D1D"/>
<stop offset="1" stop-color="#D81212"/>
</linearGradient>
</defs>
</svg>
