<svg width="32" height="32" viewBox="0 0 32 32" fill="none" xmlns="http://www.w3.org/2000/svg">
<path d="M14.5821 22.536H17.2334V14.5821H14.5821V22.536ZM15.9078 11.9308C16.2834 11.9308 16.5984 11.8036 16.853 11.549C17.1075 11.2945 17.2343 10.9799 17.2334 10.6052C17.2325 10.2305 17.1053 9.91584 16.8516 9.66132C16.598 9.40679 16.2834 9.27953 15.9078 9.27953C15.5322 9.27953 15.2176 9.40679 14.9639 9.66132C14.7103 9.91584 14.583 10.2305 14.5821 10.6052C14.5812 10.9799 14.7085 11.295 14.9639 11.5504C15.2193 11.8058 15.5339 11.9326 15.9078 11.9308ZM15.9078 29.1643C14.074 29.1643 12.3506 28.816 10.7377 28.1196C9.12487 27.4232 7.7219 26.4789 6.52881 25.2867C5.33573 24.0945 4.39143 22.6916 3.6959 21.0778C3.00038 19.464 2.65218 17.7407 2.65129 15.9078C2.65041 14.0748 2.99861 12.3515 3.6959 10.7377C4.39319 9.12399 5.3375 7.72101 6.52881 6.52881C7.72013 5.33661 9.12311 4.39231 10.7377 3.6959C12.3524 2.99949 14.0757 2.65129 15.9078 2.65129C17.7398 2.65129 19.4632 2.99949 21.0778 3.6959C22.6924 4.39231 24.0954 5.33661 25.2867 6.52881C26.478 7.72101 27.4228 9.12399 28.121 10.7377C28.8191 12.3515 29.1669 14.0748 29.1643 15.9078C29.1616 17.7407 28.8134 19.464 28.1196 21.0778C27.4259 22.6916 26.4816 24.0945 25.2867 25.2867C24.0919 26.4789 22.6889 27.4237 21.0778 28.121C19.4667 28.8183 17.7434 29.166 15.9078 29.1643ZM15.9078 26.513C18.8684 26.513 21.3761 25.4856 23.4308 23.4308C25.4856 21.3761 26.513 18.8684 26.513 15.9078C26.513 12.9472 25.4856 10.4395 23.4308 8.38472C21.3761 6.32996 18.8684 5.30259 15.9078 5.30259C12.9472 5.30259 10.4395 6.32996 8.38472 8.38472C6.32997 10.4395 5.30259 12.9472 5.30259 15.9078C5.30259 18.8684 6.32997 21.3761 8.38472 23.4308C10.4395 25.4856 12.9472 26.513 15.9078 26.513Z" fill="#D71212"/>
</svg>
