<svg width="29" height="29" viewBox="0 0 29 29" fill="none" xmlns="http://www.w3.org/2000/svg">
<rect width="28.3679" height="28.3679" rx="14.184" fill="#E5E5E5" fill-opacity="0.7"/>
<g clip-path="url(#clip0_222_337)">
<path d="M17.3708 13.8086C17.3152 13.7819 17.2586 13.7562 17.2013 13.7317C17.1016 11.8939 16.0974 10.8419 14.4113 10.8311C14.4037 10.831 14.3961 10.831 14.3884 10.831C13.3799 10.831 12.5412 11.2615 12.0249 12.0449L12.9522 12.681C13.3379 12.0958 13.9432 11.9711 14.3889 11.9711C14.3941 11.9711 14.3992 11.9711 14.4043 11.9712C14.9595 11.9747 15.3784 12.1361 15.6495 12.4509C15.8469 12.6801 15.9789 12.9967 16.0442 13.3964C15.552 13.3128 15.0196 13.2871 14.4506 13.3197C12.8475 13.412 11.8169 14.347 11.8861 15.6461C11.9213 16.3051 12.2496 16.872 12.8105 17.2423C13.2848 17.5554 13.8957 17.7085 14.5305 17.6738C15.3689 17.6279 16.0266 17.308 16.4854 16.7231C16.8339 16.279 17.0543 15.7033 17.1516 14.9781C17.5512 15.2192 17.8473 15.5365 18.0108 15.9179C18.2889 16.5664 18.3051 17.6319 17.4357 18.5006C16.6739 19.2616 15.7583 19.5908 14.3745 19.601C12.8394 19.5896 11.6785 19.0973 10.9237 18.1378C10.2169 17.2393 9.85159 15.9415 9.83796 14.2805C9.85159 12.6194 10.2169 11.3216 10.9237 10.4231C11.6785 9.46358 12.8394 8.9713 14.3744 8.95989C15.9206 8.97139 17.1017 9.46604 17.8854 10.4302C18.2697 10.903 18.5594 11.4976 18.7504 12.1909L19.837 11.9009C19.6056 11.0476 19.2413 10.3123 18.7455 9.70243C17.7409 8.46634 16.2715 7.83296 14.3782 7.81982H14.3706C12.4812 7.83291 11.0283 8.4687 10.0522 9.70951C9.1836 10.8137 8.73556 12.3501 8.72051 14.2759L8.72046 14.2805L8.72051 14.285C8.73556 16.2108 9.1836 17.7472 10.0522 18.8514C11.0283 20.0922 12.4812 20.7281 14.3706 20.7411H14.3782C16.058 20.7295 17.242 20.2897 18.2175 19.3151C19.4936 18.0401 19.4552 16.442 19.0346 15.4609C18.7329 14.7574 18.1575 14.186 17.3708 13.8086ZM14.4705 16.5354C13.7679 16.575 13.0379 16.2597 13.002 15.5842C12.9753 15.0833 13.3584 14.5245 14.5136 14.4579C14.6459 14.4503 14.7757 14.4466 14.9032 14.4466C15.3228 14.4466 15.7154 14.4873 16.0723 14.5653C15.9392 16.2278 15.1584 16.4977 14.4705 16.5354Z" fill="black"/>
</g>
<defs>
<clipPath id="clip0_222_337">
<rect width="14.0959" height="14.0959" fill="white" transform="translate(7.23218 7.23193)"/>
</clipPath>
</defs>
</svg>
