<svg width="19" height="19" viewBox="0 0 19 19" fill="none" xmlns="http://www.w3.org/2000/svg">
<g clip-path="url(#clip0_244_351)">
<path d="M11.4542 3.80554C12.1976 3.95058 12.8808 4.31414 13.4163 4.84969C13.9519 5.38525 14.3154 6.06843 14.4605 6.8118M11.4542 0.76123C12.9987 0.932805 14.4389 1.62443 15.5383 2.72253C16.6378 3.82064 17.3313 5.25997 17.5048 6.80419M16.7437 12.8776V15.1608C16.7446 15.3728 16.7011 15.5826 16.6162 15.7768C16.5313 15.971 16.4068 16.1453 16.2506 16.2886C16.0944 16.4319 15.91 16.541 15.7092 16.6089C15.5084 16.6768 15.2957 16.7021 15.0846 16.683C12.7426 16.4285 10.493 15.6282 8.51645 14.3465C6.67756 13.178 5.1185 11.6189 3.94999 9.78C2.66375 7.79451 1.8633 5.53395 1.61348 3.18146C1.59446 2.97099 1.61947 2.75888 1.68692 2.55861C1.75437 2.35834 1.86278 2.17432 2.00525 2.01824C2.14772 1.86217 2.32113 1.73747 2.51443 1.65209C2.70774 1.56671 2.9167 1.52251 3.12802 1.52231H5.41126C5.78061 1.51867 6.13869 1.64947 6.41874 1.89031C6.6988 2.13116 6.88172 2.46562 6.93341 2.83136C7.02978 3.56205 7.2085 4.27949 7.46617 4.96999C7.56856 5.2424 7.59073 5.53845 7.53003 5.82307C7.46933 6.10769 7.32831 6.36894 7.12368 6.57587L6.15711 7.54243C7.24055 9.44783 8.81819 11.0255 10.7236 12.1089L11.6901 11.1423C11.8971 10.9377 12.1583 10.7967 12.4429 10.736C12.7276 10.6753 13.0236 10.6974 13.296 10.7998C13.9865 11.0575 14.704 11.2362 15.4347 11.3326C15.8044 11.3848 16.142 11.571 16.3834 11.8558C16.6247 12.1407 16.753 12.5043 16.7437 12.8776Z" stroke="#D71212" stroke-width="1.52216" stroke-linecap="round" stroke-linejoin="round"/>
</g>
<defs>
<clipPath id="clip0_244_351">
<rect width="18.2659" height="18.2659" fill="white"/>
</clipPath>
</defs>
</svg>
