<svg width="29" height="29" viewBox="0 0 29 29" fill="none" xmlns="http://www.w3.org/2000/svg">
<rect width="28.2039" height="28.2039" rx="14.1019" fill="#D71212"/>
<g clip-path="url(#clip0_279_134)">
<path d="M14.6557 9.83603C15.251 9.95217 15.798 10.2433 16.2268 10.6721C16.6557 11.1009 16.9468 11.648 17.0629 12.2432M14.6557 7.39838C15.8924 7.53576 17.0456 8.08956 17.926 8.96884C18.8064 9.84812 19.3616 11.0006 19.5006 12.2371M18.8912 17.1002V18.9285C18.8918 19.0982 18.8571 19.2662 18.7891 19.4217C18.7211 19.5772 18.6214 19.7168 18.4963 19.8316C18.3712 19.9463 18.2236 20.0336 18.0628 20.088C17.902 20.1424 17.7317 20.1626 17.5626 20.1473C15.6874 19.9436 13.886 19.3028 12.3034 18.2764C10.8309 17.3408 9.58256 16.0924 8.6469 14.6199C7.61698 13.0301 6.97604 11.22 6.776 9.33631C6.76077 9.16779 6.7808 8.99794 6.83481 8.83758C6.88882 8.67722 6.97563 8.52987 7.08971 8.4049C7.20379 8.27993 7.34264 8.18008 7.49742 8.11171C7.6522 8.04334 7.81953 8.00795 7.98874 8.00779H9.81698C10.1127 8.00488 10.3995 8.10961 10.6237 8.30246C10.8479 8.49531 10.9944 8.76313 11.0358 9.05598C11.113 9.64106 11.2561 10.2155 11.4624 10.7684C11.5444 10.9866 11.5621 11.2236 11.5135 11.4515C11.4649 11.6794 11.352 11.8886 11.1882 12.0543L10.4142 12.8283C11.2817 14.3539 12.545 15.6172 14.0707 16.4847L14.8446 15.7108C15.0103 15.5469 15.2195 15.434 15.4474 15.3854C15.6753 15.3368 15.9124 15.3546 16.1305 15.4365C16.6834 15.6429 17.2579 15.786 17.843 15.8631C18.139 15.9049 18.4093 16.054 18.6026 16.2821C18.7959 16.5102 18.8986 16.8014 18.8912 17.1002Z" stroke="white" stroke-width="1.21883" stroke-linecap="round" stroke-linejoin="round"/>
</g>
<defs>
<clipPath id="clip0_279_134">
<rect width="14.6259" height="14.6259" fill="white" transform="translate(5.48407 6.78897)"/>
</clipPath>
</defs>
</svg>
