<svg width="65" height="65" viewBox="0 0 65 65" fill="none" xmlns="http://www.w3.org/2000/svg">
<rect width="65" height="65" rx="12" fill="#D81212" fill-opacity="0.1"/>
<path d="M33 26C31.6155 26 30.2622 26.4105 29.111 27.1797C27.9599 27.9489 27.0627 29.0421 26.5328 30.3212C26.003 31.6003 25.8644 33.0078 26.1345 34.3656C26.4046 35.7235 27.0713 36.9708 28.0503 37.9497C29.0292 38.9287 30.2765 39.5954 31.6344 39.8655C32.9922 40.1356 34.3997 39.997 35.6788 39.4672C36.9579 38.9373 38.0511 38.0401 38.8203 36.889C39.5895 35.7378 40 34.3845 40 33C39.9979 31.1441 39.2597 29.3649 37.9474 28.0526C36.6351 26.7403 34.8559 26.0021 33 26ZM37.7067 31.04L32.3733 36.3733C32.2807 36.4664 32.1705 36.5402 32.0493 36.5906C31.928 36.641 31.798 36.6669 31.6667 36.6669C31.5354 36.6669 31.4053 36.641 31.2841 36.5906C31.1628 36.5402 31.0527 36.4664 30.96 36.3733L28.2933 33.7067C28.1167 33.5171 28.0205 33.2664 28.0251 33.0073C28.0297 32.7482 28.1346 32.5011 28.3178 32.3178C28.5011 32.1346 28.7482 32.0297 29.0073 32.0251C29.2664 32.0205 29.5171 32.1167 29.7067 32.2933L31.6667 34.252L36.2933 29.6267C36.4829 29.45 36.7336 29.3539 36.9927 29.3584C37.2518 29.363 37.4989 29.468 37.6822 29.6512C37.8654 29.8344 37.9703 30.0816 37.9749 30.3406C37.9795 30.5997 37.8833 30.8504 37.7067 31.04Z" fill="#D81212"/>
<path d="M46.1889 30.2374L44.7329 28.7827C44.5553 28.6061 44.4145 28.396 44.3186 28.1647C44.2227 27.9333 44.1736 27.6852 44.1742 27.4347V25.7307C44.1732 24.6949 43.7612 23.7019 43.0288 22.9695C42.2964 22.2371 41.3034 21.8251 40.2676 21.8241H38.5649C38.3145 21.8248 38.0665 21.776 37.8351 21.6803C37.6037 21.5847 37.3936 21.4441 37.2169 21.2667L35.7622 19.8107C35.0289 19.0792 34.0354 18.6685 32.9996 18.6685C31.9638 18.6685 30.9703 19.0792 30.2369 19.8107L28.7822 21.2667C28.6056 21.4443 28.3956 21.5851 28.1642 21.681C27.9328 21.7769 27.6847 21.826 27.4342 21.8254H25.7302C24.6944 21.8265 23.7014 22.2384 22.969 22.9708C22.2366 23.7032 21.8246 24.6963 21.8236 25.7321V27.4347C21.8243 27.6851 21.7755 27.9331 21.6798 28.1645C21.5842 28.3959 21.4436 28.606 21.2662 28.7827L19.8102 30.2374C19.0788 30.9707 18.668 31.9643 18.668 33.0001C18.668 34.0359 19.0788 35.0294 19.8102 35.7627L21.2662 37.2174C21.4438 37.394 21.5847 37.6041 21.6805 37.8355C21.7764 38.0668 21.8255 38.3149 21.8249 38.5654V40.2694C21.826 41.3052 22.2379 42.2982 22.9703 43.0307C23.7027 43.7631 24.6958 44.175 25.7316 44.1761H27.4342C27.6847 44.1755 27.9328 44.2245 28.1642 44.3204C28.3956 44.4163 28.6056 44.5571 28.7822 44.7347L30.2369 46.1894C30.9701 46.9212 31.9637 47.3322 32.9996 47.3322C34.0355 47.3322 35.0291 46.9212 35.7622 46.1894L37.2169 44.7334C37.3935 44.5558 37.6036 44.415 37.835 44.3191C38.0663 44.2232 38.3144 44.1741 38.5649 44.1747H40.2689C41.3047 44.1737 42.2978 43.7617 43.0302 43.0293C43.7626 42.2969 44.1745 41.3038 44.1756 40.2681V38.5654C44.175 38.3149 44.224 38.0668 44.3199 37.8355C44.4158 37.6041 44.5566 37.394 44.7342 37.2174L46.1889 35.7627C46.9204 35.0294 47.3312 34.0359 47.3312 33.0001C47.3312 31.9643 46.9204 30.9707 46.1889 30.2374ZM32.9996 42.0001C31.2195 42.0001 29.4795 41.4722 27.9994 40.4833C26.5194 39.4944 25.3658 38.0887 24.6847 36.4442C24.0035 34.7997 23.8252 32.9901 24.1725 31.2442C24.5198 29.4984 25.3769 27.8948 26.6356 26.6361C27.8943 25.3774 29.4979 24.5203 31.2438 24.173C32.9896 23.8257 34.7992 24.004 36.4437 24.6851C38.0883 25.3663 39.4939 26.5199 40.4828 27.9999C41.4717 29.48 41.9996 31.22 41.9996 33.0001C41.9967 35.3861 41.0476 37.6737 39.3604 39.3609C37.6732 41.0481 35.3857 41.9972 32.9996 42.0001Z" fill="#D81212"/>
</svg>
