<svg width="20" height="20" viewBox="0 0 20 20" fill="none" xmlns="http://www.w3.org/2000/svg">
<path d="M12.7046 8.5743C12.7046 8.24074 12.4341 7.97028 12.1006 7.97028H5.45632C5.12276 7.97028 4.85229 8.24074 4.85229 8.5743C4.85229 8.90786 5.12276 9.17833 5.45632 9.17833H12.1006C12.4341 9.17833 12.7046 8.90786 12.7046 8.5743Z" fill="#D81212"/>
<path d="M5.4551 11.0206C5.12154 11.0206 4.85107 11.2911 4.85107 11.6247C4.85107 11.9582 5.12154 12.2287 5.4551 12.2287H8.97791C9.31146 12.2287 9.58193 11.9582 9.58193 11.6247C9.58193 11.2911 9.31146 11.0206 8.97791 11.0206H5.4551Z" fill="#D81212"/>
<path d="M16.6845 8.60782C16.351 8.60782 16.0805 8.87829 16.0805 9.21184V14.0971C16.0805 15.0112 15.3369 15.7548 14.4228 15.7548H10.3825C10.2516 15.7548 10.1241 15.7971 10.0194 15.8763L6.53085 18.4997C6.44226 18.5662 6.35904 18.5387 6.31743 18.5158C6.27515 18.4944 6.20535 18.4413 6.20803 18.3333L6.27515 16.3803C6.28052 16.2165 6.21944 16.0575 6.10602 15.94C5.9926 15.8219 5.83555 15.7554 5.67179 15.7554H2.86576C1.95167 15.7554 1.20805 15.0125 1.20805 14.0977V6.11118C1.20805 5.19374 1.95167 4.44743 2.86576 4.44743H10.3087C10.6422 4.44743 10.9127 4.17696 10.9127 3.8434C10.9127 3.50985 10.6422 3.23938 10.3087 3.23938H2.86576C1.2859 3.23938 0 4.52797 0 6.11185V14.0977C0 15.6776 1.2859 16.9642 2.86576 16.9642H5.04629L5.00065 18.2944C4.98455 18.8407 5.27515 19.3373 5.76038 19.589C5.96776 19.697 6.19125 19.7501 6.41273 19.7501C6.71004 19.7501 7.00467 19.6541 7.25568 19.4668L10.5839 16.9642H14.4221C16.002 16.9642 17.2879 15.6783 17.2879 14.0977V9.21251C17.2885 8.87829 17.0181 8.60782 16.6845 8.60782Z" fill="#D81212"/>
<path d="M19.9499 2.85418C19.8405 2.51862 19.5714 2.26761 19.2297 2.18305L17.6861 1.79848L16.8432 0.449495C16.4694 -0.150503 15.4935 -0.14916 15.1204 0.449495L14.2774 1.79848L12.7338 2.18305C12.3922 2.26761 12.1224 2.51862 12.0137 2.85418C11.9049 3.18975 11.9747 3.5515 12.2016 3.82197L13.2244 5.03941L13.113 6.62598C13.0882 6.97766 13.2439 7.31122 13.5291 7.5186C13.7063 7.64746 13.9143 7.7139 14.1251 7.7139C14.2533 7.7139 14.3828 7.68907 14.5069 7.63873L15.9821 7.04276L17.4566 7.63873C17.7834 7.77162 18.1485 7.72598 18.4344 7.51927C18.7197 7.31189 18.8754 6.97833 18.8512 6.62598L18.7398 5.03941L19.7626 3.8213C19.9888 3.5515 20.0593 3.18975 19.9499 2.85418ZM17.6573 4.44948C17.5566 4.56962 17.5063 4.72398 17.5177 4.88102L17.6251 6.40451L16.209 5.83203C16.1365 5.8025 16.0593 5.78773 15.9828 5.78773C15.9063 5.78773 15.8291 5.8025 15.7566 5.83203L14.3412 6.40451L14.4479 4.88102C14.4586 4.72465 14.4083 4.56962 14.3083 4.44948L13.3264 3.28036L14.8083 2.91056C14.96 2.87231 15.0915 2.77768 15.1741 2.64479L15.9834 1.35016L16.7928 2.64479C16.8761 2.77768 17.0069 2.87298 17.1586 2.91056L18.6405 3.28036L17.6573 4.44948Z" fill="#D81212"/>
</svg>
