<svg width="24" height="24" viewBox="0 0 24 24" fill="none" xmlns="http://www.w3.org/2000/svg">
<path fill-rule="evenodd" clip-rule="evenodd" d="M11.8692 1.97778C6.40664 1.97778 1.97839 6.40603 1.97839 11.8686C1.97839 17.331 6.40664 21.7593 11.8692 21.7593C17.3316 21.7593 21.7599 17.331 21.7599 11.8686C21.7599 6.40603 17.3316 1.97778 11.8692 1.97778ZM8.78913 4.0435C6.83754 4.81228 5.24284 6.29005 4.32232 8.15951H7.26898C7.49183 7.01495 7.81612 5.9745 8.22272 5.08956C8.39104 4.72319 8.58004 4.37091 8.78913 4.0435ZM3.46201 11.8686C3.46201 11.0982 3.56563 10.3519 3.7597 9.64313H7.04434C6.96525 10.36 6.92378 11.1052 6.92378 11.8686C6.92378 12.6319 6.96525 13.3771 7.04434 14.094H3.7597C3.56563 13.3852 3.46201 12.6389 3.46201 11.8686ZM4.32232 15.5776C5.24284 17.447 6.83754 18.9248 8.78913 19.6936C8.58005 19.3661 8.39104 19.0139 8.22272 18.6476C7.81612 17.7626 7.49183 16.7221 7.26898 15.5776H4.32232ZM8.78322 15.5776C8.98158 16.5027 9.25054 17.331 9.57084 18.0281C10.307 19.6304 11.1739 20.2757 11.8692 20.2757C12.5644 20.2757 13.4313 19.6304 14.1675 18.0281C14.4877 17.331 14.7568 16.5027 14.9551 15.5776H8.78322ZM16.4694 15.5776C16.2465 16.7221 15.9222 17.7626 15.5156 18.6476C15.3472 19.0139 15.1582 19.3661 14.9492 19.6936C16.9008 18.9248 18.4955 17.447 19.416 15.5776H16.4694ZM19.9786 14.094H16.694C16.7731 13.3771 16.8145 12.6319 16.8145 11.8686C16.8145 11.1052 16.7731 10.36 16.694 9.64313H19.9786C20.1727 10.3519 20.2763 11.0982 20.2763 11.8686C20.2763 12.6389 20.1727 13.3852 19.9786 14.094ZM15.2007 14.094H8.53768C8.453 13.3867 8.40739 12.6409 8.40739 11.8686C8.40739 11.0962 8.453 10.3504 8.53768 9.64313H15.2007C15.2853 10.3504 15.3309 11.0962 15.3309 11.8686C15.3309 12.6409 15.2853 13.3867 15.2007 14.094ZM16.4694 8.15951H19.416C18.4955 6.29005 16.9008 4.81228 14.9492 4.0435C15.1582 4.37091 15.3472 4.7232 15.5156 5.08956C15.9222 5.9745 16.2465 7.01495 16.4694 8.15951ZM9.57084 5.70897C9.25054 6.4061 8.98158 7.23447 8.78322 8.15951H14.9551C14.7568 7.23447 14.4877 6.4061 14.1675 5.70897C13.4313 4.10668 12.5644 3.4614 11.8692 3.4614C11.1739 3.4614 10.307 4.10668 9.57084 5.70897Z" fill="#626262"/>
</svg>
