<svg width="24" height="24" viewBox="0 0 24 24" fill="none" xmlns="http://www.w3.org/2000/svg">
<path d="M6.26673 4.32669C8.53464 6.02929 10.974 9.48145 11.8697 11.3341C12.7653 9.48159 15.2046 6.02926 17.4726 4.32669C19.1089 3.09816 21.7604 2.1476 21.7604 5.17234C21.7604 5.77643 21.414 10.247 21.2109 10.9728C20.5048 13.496 17.9318 14.1396 15.6431 13.7501C19.6437 14.431 20.6614 16.6864 18.4636 18.9417C14.2894 23.2251 12.464 17.8669 11.996 16.494C11.9103 16.2424 11.8702 16.1246 11.8696 16.2248C11.869 16.1246 11.8288 16.2424 11.7431 16.494C11.2754 17.8669 9.45009 23.2252 5.27563 18.9417C3.07771 16.6864 4.0954 14.4309 8.09609 13.7501C5.80731 14.1396 3.2343 13.496 2.5283 10.9728C2.32516 10.2469 1.97882 5.77636 1.97882 5.17234C1.97882 2.1476 4.63039 3.09816 6.26673 4.32669Z" fill="#626262"/>
</svg>
