<svg width="24" height="24" viewBox="0 0 24 24" fill="none" xmlns="http://www.w3.org/2000/svg">
<path d="M15.7714 8.595V15.5022C15.7714 18.9512 12.9619 21.7608 9.51294 21.7608C8.18361 21.7608 6.9405 21.3368 5.92734 20.6255C4.31065 19.4902 3.25439 17.6147 3.25439 15.5022C3.25439 12.046 6.05674 9.2437 9.50572 9.2437C9.79315 9.2437 10.0733 9.26526 10.3536 9.3012V12.7718H10.3249C10.2027 12.7359 10.0733 12.6999 9.94408 12.6784H9.88651C9.7572 12.6641 9.63503 12.6424 9.49849 12.6424C7.91776 12.6424 6.63154 13.9286 6.63154 15.5094C6.63154 17.0902 7.91776 18.3764 9.49849 18.3764C11.0793 18.3764 12.3655 17.0902 12.3655 15.5094V1.97925H15.7642C15.7642 2.27384 15.793 2.56126 15.8432 2.84149C16.0875 4.13487 16.8492 5.24861 17.9199 5.9456C18.6671 6.4342 19.5438 6.71443 20.4922 6.71443V10.1131C18.735 10.1131 17.0995 9.54752 15.7714 8.595Z" fill="#626262"/>
</svg>
