<svg width="24" height="24" viewBox="0 0 24 24" fill="none" xmlns="http://www.w3.org/2000/svg">
<path fill-rule="evenodd" clip-rule="evenodd" d="M19.5776 4.167C17.5324 2.11914 14.8122 0.990785 11.9139 0.989746C5.94182 0.989746 1.0814 5.84965 1.07932 11.8234C1.07828 13.733 1.57752 15.597 2.5256 17.2396L0.988403 22.8543L6.73197 21.3478C8.31435 22.2112 10.0962 22.6658 11.9093 22.6663H11.9139C17.885 22.6663 22.746 17.8059 22.7481 11.8322C22.7491 8.93706 21.6233 6.21486 19.5776 4.167ZM11.9139 20.8366H11.9103C10.2946 20.8361 8.70971 20.4018 7.32682 19.5815L6.99795 19.3862L3.58954 20.2803L4.49917 16.957L4.28513 16.6162C3.38381 15.1825 2.90743 13.5252 2.90847 11.8239C2.91055 6.85904 6.95016 2.81942 11.9176 2.81942C14.3228 2.82046 16.5838 3.75815 18.284 5.46055C19.9844 7.16243 20.92 9.42537 20.919 11.8312C20.9168 16.7965 16.8772 20.8366 11.9139 20.8366ZM16.8533 14.0925C16.5827 13.957 15.2518 13.3023 15.0034 13.212C14.7551 13.1215 14.5749 13.0764 14.3945 13.3475C14.2143 13.6187 13.6954 14.2287 13.5374 14.4089C13.3795 14.5897 13.2215 14.6121 12.9509 14.4764C12.6803 14.3409 11.808 14.0551 10.7736 13.133C9.96902 12.415 9.42554 11.5288 9.26767 11.2576C9.10972 10.9864 9.25104 10.8399 9.38607 10.7054C9.50763 10.5838 9.65674 10.389 9.79231 10.231C9.92798 10.0732 9.97258 9.95994 10.063 9.77964C10.1534 9.59885 10.1082 9.44097 10.0406 9.30534C9.97308 9.16976 9.43183 7.83722 9.20583 7.29541C8.98606 6.76761 8.76271 6.83929 8.59699 6.83047C8.43904 6.82267 8.2588 6.82112 8.07802 6.82112C7.89722 6.82112 7.6042 6.88865 7.35589 7.15983C7.10759 7.43098 6.40833 8.08606 6.40833 9.41806C6.40833 10.75 7.37825 12.0379 7.51383 12.2187C7.64941 12.3995 9.42294 15.1336 12.1384 16.3066C12.7841 16.5856 13.2886 16.7523 13.6818 16.877C14.3302 17.0833 14.9202 17.0542 15.3868 16.9846C15.9068 16.9066 16.9884 16.3295 17.2139 15.6973C17.4393 15.065 17.4393 14.5226 17.3719 14.4099C17.3043 14.2971 17.1235 14.2291 16.8528 14.0936L16.8533 14.0925Z" fill="#626262"/>
</svg>
