<svg width="24" height="24" viewBox="0 0 24 24" fill="none" xmlns="http://www.w3.org/2000/svg">
<path d="M11.869 1.97778C9.18977 1.97778 8.8437 1.97778 7.78317 2.0336C6.96301 2.0494 6.15146 2.20416 5.38305 2.4913C4.73557 2.74806 4.18856 3.08296 3.63039 3.64113C3.08338 4.18813 2.73732 4.73514 2.49173 5.39378C2.24613 6.01893 2.07868 6.73339 2.03402 7.79391C1.98938 8.84327 1.97821 9.17817 1.97821 11.8686C1.97821 14.5478 1.97821 14.8827 2.03402 15.9432C2.07868 17.0037 2.2573 17.7293 2.49173 18.3545C2.74848 19.002 3.08338 19.5489 3.63039 20.1072C4.18856 20.6541 4.73557 21.0002 5.38305 21.2458C6.01936 21.4914 6.73382 21.6588 7.78317 21.7035C8.8437 21.7481 9.1786 21.7593 11.869 21.7593C14.5482 21.7593 14.8831 21.7593 15.9436 21.7035C16.993 21.6588 17.7186 21.4802 18.3438 21.2458C19.0039 20.9983 19.602 20.6097 20.0964 20.1072C20.6546 19.5489 20.9895 18.9908 21.235 18.3545C21.4806 17.7181 21.6481 17.0037 21.704 15.9432C21.7486 14.8938 21.7597 14.5589 21.7597 11.8686C21.7597 9.18934 21.7486 8.85444 21.704 7.79391C21.6831 6.97326 21.5245 6.16194 21.235 5.39378C20.9872 4.73384 20.5987 4.13577 20.0964 3.64113C19.5383 3.08296 19.0024 2.74806 18.3438 2.4913C17.5746 2.20839 16.7631 2.05741 15.9436 2.04476C14.8831 1.98895 14.5482 1.97778 11.869 1.97778ZM10.9759 3.76393H11.869C14.5036 3.76393 14.8161 3.76393 15.8654 3.81974C16.4903 3.82597 17.1096 3.93925 17.6962 4.15464C18.1651 4.33326 18.4889 4.54537 18.8349 4.89143C19.181 5.23749 19.3931 5.5724 19.5829 6.03009C19.7168 6.38733 19.8731 6.90084 19.9178 7.87206C19.9624 8.91025 19.9736 9.22283 19.9736 11.8686C19.9736 14.5032 19.9736 14.8157 19.9178 15.865C19.9116 16.4899 19.7983 17.1092 19.5829 17.6958C19.4043 18.1647 19.181 18.4884 18.8349 18.8345C18.5 19.1806 18.1651 19.3927 17.6962 19.5713C17.1103 19.7905 16.491 19.9076 15.8654 19.9174C14.8161 19.962 14.5036 19.9731 11.869 19.9731C9.22326 19.9731 8.91068 19.9731 7.87249 19.9174C7.24386 19.9119 6.62082 19.7987 6.03052 19.5825C5.57282 19.3927 5.24909 19.1806 4.89185 18.8345C4.55695 18.4996 4.33369 18.1647 4.15507 17.6958C3.93968 17.1092 3.8264 16.4899 3.82017 15.865C3.76435 14.8157 3.75319 14.5032 3.75319 11.8686C3.75319 9.22283 3.76435 8.91025 3.80901 7.87206C3.81396 7.24338 3.92726 6.62027 4.14391 6.03009C4.33369 5.5724 4.54579 5.24866 4.89185 4.89143C5.23792 4.55652 5.56166 4.33326 6.03052 4.15464C6.6207 3.93799 7.24381 3.8247 7.87249 3.81974C8.77672 3.77509 9.13394 3.76393 10.9759 3.75276V3.76393ZM17.1493 5.40494C16.9939 5.40494 16.84 5.43556 16.6965 5.49502C16.5529 5.55448 16.4224 5.64165 16.3125 5.75153C16.2026 5.86141 16.1155 5.99186 16.056 6.13543C15.9966 6.27899 15.9659 6.43287 15.9659 6.58827C15.9659 6.74366 15.9966 6.89753 16.056 7.0411C16.1155 7.18467 16.2026 7.31512 16.3125 7.42499C16.4224 7.53488 16.5529 7.62204 16.6965 7.68151C16.84 7.74098 16.9939 7.77159 17.1493 7.77159C17.4631 7.77159 17.7641 7.64691 17.986 7.42499C18.2079 7.20309 18.3326 6.9021 18.3326 6.58827C18.3326 6.27443 18.2079 5.97345 17.986 5.75153C17.7641 5.52962 17.4631 5.40494 17.1493 5.40494ZM11.869 6.78921C11.2019 6.78921 10.5414 6.92059 9.92524 7.17585C9.30894 7.43111 8.74899 7.80525 8.27733 8.27691C7.80567 8.74857 7.43153 9.30851 7.17627 9.92482C6.92101 10.541 6.78963 11.2015 6.78963 11.8686C6.78963 12.5356 6.92101 13.1961 7.17627 13.8123C7.43153 14.4286 7.80567 14.9885 8.27733 15.4602C8.74899 15.9319 9.30894 16.3059 9.92524 16.5612C10.5414 16.8165 11.2019 16.9479 11.869 16.9479C13.2161 16.9479 14.508 16.4128 15.4606 15.4602C16.4132 14.5076 16.9483 13.2157 16.9483 11.8686C16.9483 10.5214 16.4132 9.22948 15.4606 8.27691C14.508 7.32435 13.2161 6.78921 11.869 6.78921ZM11.869 8.57535C12.3014 8.57535 12.7297 8.66053 13.1293 8.82603C13.5287 8.99152 13.8918 9.23411 14.1977 9.53991C14.5034 9.84571 14.746 10.2088 14.9115 10.6083C15.077 11.0079 15.1622 11.4361 15.1622 11.8686C15.1622 12.301 15.077 12.7292 14.9115 13.1288C14.746 13.5283 14.5034 13.8914 14.1977 14.1972C13.8918 14.503 13.5287 14.7456 13.1293 14.9111C12.7297 15.0765 12.3014 15.1618 11.869 15.1618C10.9955 15.1618 10.158 14.8148 9.54034 14.1972C8.92274 13.5796 8.57578 12.742 8.57578 11.8686C8.57578 10.9951 8.92274 10.1575 9.54034 9.53991C10.158 8.92231 10.9955 8.57535 11.869 8.57535Z" fill="#626262"/>
</svg>
