<svg width="24" height="24" viewBox="0 0 24 24" fill="none" xmlns="http://www.w3.org/2000/svg">
<path d="M22.7486 11.8696C22.7486 5.86082 17.8775 0.989746 11.8687 0.989746C5.85998 0.989746 0.988892 5.86082 0.988892 11.8696C0.988892 16.972 4.50156 21.2534 9.24042 22.4291V15.1943H6.99692V11.8696H9.24042V10.437C9.24042 6.73382 10.9163 5.01742 14.5519 5.01742C15.2411 5.01742 16.4305 5.15255 16.917 5.28772V8.30161C16.6602 8.27459 16.2142 8.26105 15.6601 8.26105C13.8761 8.26105 13.1868 8.93682 13.1868 10.6938V11.8696H16.7405L16.1301 15.1943H13.1868V22.6697C18.5739 22.0191 22.7486 17.4322 22.7486 11.8696Z" fill="#626262"/>
</svg>
