<svg width="24" height="24" viewBox="0 0 24 24" fill="none" xmlns="http://www.w3.org/2000/svg">
<path fill-rule="evenodd" clip-rule="evenodd" d="M9.19078 9.19032H12.4645V10.859H12.5004C12.9995 9.95921 14.4736 9.04556 16.2964 9.04556C19.7948 9.04556 20.771 10.903 20.771 14.3435V20.7705H17.2969V14.9769C17.2969 13.4368 16.682 12.0853 15.2437 12.0853C13.4975 12.0853 12.6648 13.2677 12.6648 15.2085V20.7705H9.19078V9.19032ZM3.40069 20.7705H6.87475V9.19032H3.40069V20.7705ZM7.309 5.13725C7.30913 5.42234 7.2531 5.70467 7.14411 5.96811C7.03511 6.23155 6.87528 6.47094 6.67377 6.6726C6.47225 6.87426 6.23298 7.03427 5.96962 7.14344C5.70627 7.25264 5.42397 7.30886 5.13887 7.30894C4.85378 7.30902 4.57146 7.25293 4.30805 7.14389C4.04463 7.03485 3.80527 6.87498 3.60364 6.67342C3.40201 6.47187 3.24206 6.23256 3.13292 5.96918C3.02379 5.7058 2.96761 5.42351 2.96759 5.1384C2.96754 4.56277 3.19615 4.01069 3.60311 3.60357C4.01008 3.19647 4.56208 2.96769 5.13771 2.96753C5.71336 2.96737 6.26548 3.19587 6.67266 3.60276C7.07985 4.00965 7.30874 4.56161 7.309 5.13725Z" fill="#626262"/>
</svg>
