<svg width="24" height="24" viewBox="0 0 24 24" fill="none" xmlns="http://www.w3.org/2000/svg">
<path fill-rule="evenodd" clip-rule="evenodd" d="M19.5976 5.35731C20.4503 5.58704 21.1207 6.25733 21.3473 7.107C21.7596 8.64899 21.7596 11.8683 21.7596 11.8683C21.7596 11.8683 21.7596 15.0876 21.3473 16.6296C21.1176 17.4823 20.4474 18.1527 19.5976 18.3792C18.0556 18.7915 11.8688 18.7915 11.8688 18.7915C11.8688 18.7915 5.6851 18.7915 4.13996 18.3792C3.28715 18.1494 2.61685 17.4792 2.39027 16.6296C1.97803 15.0876 1.97803 11.8683 1.97803 11.8683C1.97803 11.8683 1.97803 8.64899 2.39027 7.107C2.62001 6.25419 3.2903 5.58389 4.13996 5.35731C5.6851 4.94507 11.8688 4.94507 11.8688 4.94507C11.8688 4.94507 18.0556 4.94507 19.5976 5.35731ZM15.03 11.8678L9.89104 14.8352V8.90022L15.03 11.8678Z" fill="#626262"/>
</svg>
