<svg width="24" height="24" viewBox="0 0 24 24" fill="none" xmlns="http://www.w3.org/2000/svg">
<path d="M17.0745 11.075C16.9808 11.0301 16.8855 10.9867 16.7891 10.9454C16.6212 7.85065 14.9301 6.0789 12.0907 6.06077C12.0778 6.06069 12.0651 6.06069 12.0521 6.06069C10.3538 6.06069 8.94133 6.78563 8.07195 8.10479L9.63356 9.17602C10.2831 8.19065 11.3023 7.98059 12.0529 7.98059C12.0616 7.98059 12.0703 7.98059 12.0788 7.98067C13.0138 7.98663 13.7193 8.25846 14.1759 8.78856C14.5082 9.17449 14.7304 9.70778 14.8404 10.3808C14.0116 10.24 13.1151 10.1967 12.1568 10.2516C9.45718 10.407 7.72166 11.9816 7.83823 14.1693C7.89737 15.279 8.45023 16.2338 9.39487 16.8574C10.1935 17.3847 11.2223 17.6424 12.2914 17.5841C13.7032 17.5067 14.8108 16.9681 15.5835 15.9831C16.1703 15.2351 16.5414 14.2657 16.7053 13.0444C17.3782 13.4504 17.8769 13.9848 18.1522 14.6271C18.6206 15.7192 18.6479 17.5135 17.1837 18.9764C15.9009 20.258 14.3589 20.8123 12.0286 20.8294C9.44352 20.8104 7.4885 19.9813 6.21741 18.3655C5.02713 16.8524 4.41198 14.6668 4.38904 11.8696C4.41198 9.07231 5.02713 6.8868 6.21741 5.37372C7.4885 3.75787 9.44349 2.92885 12.0285 2.90964C14.6323 2.929 16.6214 3.762 17.9411 5.38566C18.5882 6.18188 19.0761 7.18319 19.3978 8.35067L21.2277 7.86243C20.8379 6.42539 20.2244 5.18706 19.3896 4.16008C17.6977 2.07849 15.2232 1.01186 12.0349 0.989746H12.0221C8.8403 1.01178 6.39353 2.08247 4.74978 4.17202C3.28708 6.03147 2.53257 8.61875 2.50722 11.862L2.50714 11.8696L2.50722 11.8772C2.53257 15.1204 3.28708 17.7077 4.74978 19.5672C6.39353 21.6567 8.8403 22.7275 12.0221 22.7494H12.0349C14.8637 22.7299 16.8576 21.9892 18.5003 20.3481C20.6494 18.201 20.5847 15.5097 19.8764 13.8575C19.3682 12.6728 18.3993 11.7104 17.0745 11.075ZM12.1903 15.667C11.0071 15.7336 9.77787 15.2026 9.71726 14.065C9.67234 13.2217 10.3175 12.2806 12.2629 12.1684C12.4856 12.1555 12.7043 12.1493 12.919 12.1493C13.6256 12.1493 14.2867 12.2179 14.8877 12.3493C14.6636 15.1489 13.3487 15.6035 12.1903 15.667Z" fill="#626262"/>
</svg>
