<svg width="29" height="29" viewBox="0 0 29 29" fill="none" xmlns="http://www.w3.org/2000/svg">
<rect width="28.3679" height="28.3679" rx="14.184" fill="#E5E5E5" fill-opacity="0.7"/>
<path d="M16.401 12.1395V16.2411C16.401 18.2892 14.7327 19.9576 12.6846 19.9576C11.8952 19.9576 11.157 19.7058 10.5554 19.2834C9.59536 18.6092 8.96814 17.4955 8.96814 16.2411C8.96814 14.1888 10.6322 12.5247 12.6803 12.5247C12.851 12.5247 13.0174 12.5375 13.1837 12.5588V14.6197H13.1667C13.0942 14.5984 13.0174 14.577 12.9406 14.5643H12.9064C12.8296 14.5558 12.7571 14.5429 12.676 14.5429C11.7373 14.5429 10.9735 15.3067 10.9735 16.2453C10.9735 17.1841 11.7373 17.9478 12.676 17.9478C13.6147 17.9478 14.3785 17.1841 14.3785 16.2453V8.21094H16.3967C16.3967 8.38587 16.4138 8.55655 16.4436 8.72295C16.5887 9.49098 17.041 10.1523 17.6768 10.5662C18.1205 10.8564 18.641 11.0228 19.2042 11.0228V13.041C18.1608 13.041 17.1896 12.7051 16.401 12.1395Z" fill="black"/>
</svg>
