<svg width="20" height="18" viewBox="0 0 20 18" fill="none" xmlns="http://www.w3.org/2000/svg">
<path d="M7.21452 7.84615C6.43324 7.84615 5.6695 7.61607 5.01989 7.185C4.37028 6.75392 3.86397 6.14122 3.56498 5.42437C3.266 4.70753 3.18777 3.91873 3.34019 3.15772C3.49261 2.39672 3.86883 1.6977 4.42128 1.14904C4.97373 0.600392 5.6776 0.226755 6.44387 0.0753826C7.21014 -0.0759902 8.0044 0.00169981 8.72621 0.298628C9.44802 0.595557 10.065 1.09839 10.499 1.74353C10.9331 2.38868 11.1648 3.14717 11.1648 3.92308C11.1635 4.96317 10.7469 5.96031 10.0064 6.69576C9.26586 7.43122 8.26181 7.84493 7.21452 7.84615ZM7.21452 1.38462C6.70899 1.38462 6.2148 1.53349 5.79447 1.81242C5.37413 2.09135 5.04652 2.48781 4.85306 2.95165C4.6596 3.41549 4.60898 3.92589 4.7076 4.41831C4.80623 4.91072 5.04967 5.36303 5.40713 5.71804C5.7646 6.07305 6.22004 6.31482 6.71587 6.41276C7.21169 6.51071 7.72562 6.46044 8.19267 6.26831C8.65973 6.07618 9.05893 5.75082 9.33979 5.33337C9.62065 4.91592 9.77056 4.42514 9.77056 3.92308C9.77006 3.24999 9.50061 2.6046 9.02137 2.12865C8.54213 1.65271 7.89227 1.38511 7.21452 1.38462ZM10.924 18H3.48829C1.23898 18 0 16.7769 0 14.556C0 12.0988 1.39978 9.23077 5.34444 9.23077H9.0623C13.007 9.23077 14.4067 12.0988 14.4067 14.556C14.4095 16.7769 13.1705 18 10.924 18ZM5.34722 10.6154C4.81648 10.5746 4.28316 10.6487 3.78407 10.8326C3.28498 11.0165 2.83201 11.3057 2.45644 11.6804C2.08087 12.055 1.79165 12.5062 1.60874 13.0026C1.42582 13.4991 1.35358 14.0291 1.39699 14.556C1.39699 15.9997 2.02345 16.6154 3.49108 16.6154H10.924C12.3917 16.6154 13.0181 15.9997 13.0181 14.556C13.0616 14.0288 12.9893 13.4986 12.8062 13.0019C12.6231 12.5052 12.3336 12.0539 11.9578 11.6792C11.5819 11.3045 11.1286 11.0154 10.6291 10.8317C10.1297 10.648 9.59605 10.5742 9.06509 10.6154H5.34722ZM14.2329 8.25231C13.3993 8.25515 12.5981 7.9322 12.0022 7.35323C11.8892 7.22216 11.8296 7.05392 11.835 6.88147C11.8404 6.70902 11.9105 6.54478 12.0314 6.42095C12.1524 6.29711 12.3156 6.2226 12.489 6.21201C12.6624 6.20142 12.8335 6.25551 12.9689 6.36369C13.3058 6.68991 13.7587 6.87101 14.2292 6.86769C14.4704 6.87029 14.7097 6.82503 14.933 6.73456C15.1563 6.64409 15.3592 6.51024 15.5298 6.34086C15.7003 6.17148 15.8351 5.96998 15.9262 5.74819C16.0173 5.52639 16.0629 5.28876 16.0603 5.04923C16.0595 4.56717 15.8664 4.10506 15.5231 3.76419C15.1799 3.42333 14.7146 3.2315 14.2292 3.23077C13.9625 3.22655 13.6986 3.28574 13.4596 3.40339C13.2948 3.48675 13.1034 3.50168 12.9276 3.4449C12.7517 3.38812 12.6057 3.26428 12.5218 3.10062C12.4378 2.93696 12.4228 2.74689 12.48 2.57222C12.5372 2.39755 12.6619 2.25259 12.8266 2.16923C13.2626 1.9513 13.7449 1.8405 14.2329 1.84616C15.0883 1.84616 15.9087 2.18362 16.5135 2.78431C17.1184 3.38501 17.4582 4.19972 17.4582 5.04923C17.4582 5.89874 17.1184 6.71346 16.5135 7.31415C15.9087 7.91484 15.0883 8.25231 14.2329 8.25231ZM17.1143 16.1538H16.4822C16.2974 16.1538 16.12 16.0809 15.9893 15.9511C15.8586 15.8212 15.7851 15.6451 15.7851 15.4615C15.7851 15.2779 15.8586 15.1018 15.9893 14.972C16.12 14.8422 16.2974 14.7692 16.4822 14.7692H17.1143C18.1785 14.7692 18.5921 14.3631 18.5921 13.32C18.624 12.9309 18.5704 12.5396 18.4352 12.1731C18.2999 11.8066 18.0861 11.4736 17.8086 11.1971C17.5312 10.9207 17.1965 10.7073 16.8279 10.5718C16.4593 10.4363 16.0655 10.3819 15.6736 10.4123H14.2701C14.0852 10.4123 13.9079 10.3394 13.7772 10.2095C13.6465 10.0797 13.573 9.90361 13.573 9.72C13.573 9.53639 13.6465 9.3603 13.7772 9.23046C13.9079 9.10063 14.0852 9.02769 14.2701 9.02769H15.6736C16.2506 8.99006 16.829 9.07537 17.37 9.27789C17.9111 9.48042 18.4023 9.79548 18.8107 10.202C19.2191 10.6084 19.5353 11.0969 19.7381 11.6347C19.9408 12.1725 20.0255 12.7471 19.9863 13.32C20.0261 13.7035 19.9789 14.0909 19.8484 14.4539C19.7178 14.817 19.5071 15.1464 19.2318 15.4181C18.9564 15.6898 18.6233 15.8969 18.2569 16.0242C17.8906 16.1515 17.5001 16.1958 17.1143 16.1538Z" fill="#D81212"/>
</svg>
