<svg width="65" height="65" viewBox="0 0 65 65" fill="none" xmlns="http://www.w3.org/2000/svg">
<rect width="65" height="65" rx="12" fill="#38BDF8" fill-opacity="0.15"/>
<path d="M36.5 22.5C34.4233 22.5 32.3932 23.1158 30.6665 24.2696C28.9398 25.4233 27.594 27.0632 26.7993 28.9818C26.0045 30.9004 25.7966 33.0116 26.2018 35.0484C26.6069 37.0852 27.6069 38.9562 29.0754 40.4246C30.5438 41.8931 32.4148 42.8931 34.4516 43.2982C36.4884 43.7034 38.5996 43.4955 40.5182 42.7007C42.4368 41.906 44.0767 40.5602 45.2304 38.8335C46.3842 37.1068 47 35.0767 47 33C46.997 30.2162 45.8897 27.5472 43.9213 25.5787C41.9528 23.6103 39.2838 22.503 36.5 22.5ZM36.5 41.5C34.8189 41.5 33.1755 41.0015 31.7777 40.0675C30.3798 39.1335 29.2904 37.806 28.647 36.2528C28.0037 34.6996 27.8354 32.9906 28.1633 31.3417C28.4913 29.6929 29.3009 28.1783 30.4896 26.9896C31.6783 25.8008 33.1929 24.9913 34.8417 24.6633C36.4906 24.3354 38.1996 24.5037 39.7528 25.147C41.306 25.7904 42.6335 26.8798 43.5675 28.2777C44.5015 29.6755 45 31.3189 45 33C44.9968 35.2534 44.1002 37.4135 42.5069 39.0069C40.9135 40.6002 38.7534 41.4968 36.5 41.5Z" fill="#38BDF8"/>
<path d="M36.5 25.5C35.0166 25.5 33.5666 25.9399 32.3332 26.764C31.0999 27.5881 30.1386 28.7594 29.5709 30.1299C29.0032 31.5003 28.8547 33.0083 29.1441 34.4632C29.4335 35.918 30.1478 37.2544 31.1967 38.3033C32.2456 39.3522 33.582 40.0665 35.0368 40.3559C36.4917 40.6453 37.9997 40.4968 39.3701 39.9291C40.7406 39.3614 41.9119 38.4001 42.736 37.1668C43.5601 35.9334 44 34.4834 44 33C43.9976 31.0116 43.2066 29.1054 41.8006 27.6994C40.3946 26.2934 38.4884 25.5024 36.5 25.5ZM40.5 33.5H37.91C37.8259 33.7387 37.6827 33.9523 37.4937 34.1206C37.3047 34.289 37.0761 34.4067 36.8293 34.4628C36.5824 34.5189 36.3254 34.5115 36.0822 34.4413C35.839 34.3711 35.6176 34.2404 35.4386 34.0614C35.2596 33.8824 35.1289 33.661 35.0587 33.4178C34.9885 33.1746 34.9811 32.9176 35.0372 32.6707C35.0933 32.4239 35.211 32.1953 35.3794 32.0063C35.5477 31.8173 35.7613 31.6741 36 31.59V27C36 26.8674 36.0527 26.7402 36.1464 26.6464C36.2402 26.5527 36.3674 26.5 36.5 26.5C36.6326 26.5 36.7598 26.5527 36.8536 26.6464C36.9473 26.7402 37 26.8674 37 27V31.59C37.2091 31.6657 37.399 31.7865 37.5563 31.9437C37.7135 32.101 37.8343 32.2909 37.91 32.5H40.5C40.6326 32.5 40.7598 32.5527 40.8536 32.6464C40.9473 32.7402 41 32.8674 41 33C41 33.1326 40.9473 33.2598 40.8536 33.3536C40.7598 33.4473 40.6326 33.5 40.5 33.5Z" fill="#38BDF8"/>
<path d="M36.5 33.5C36.7761 33.5 37 33.2761 37 33C37 32.7239 36.7761 32.5 36.5 32.5C36.2239 32.5 36 32.7239 36 33C36 33.2761 36.2239 33.5 36.5 33.5Z" fill="#38BDF8"/>
<path d="M25 33C25 32.83 25.005 32.665 25.015 32.5H19.5C19.3674 32.5 19.2402 32.5527 19.1464 32.6464C19.0527 32.7402 19 32.8674 19 33C19 33.1326 19.0527 33.2598 19.1464 33.3536C19.2402 33.4473 19.3674 33.5 19.5 33.5H25.015C25.005 33.335 25 33.17 25 33Z" fill="#38BDF8"/>
<path d="M21 30.5H25.28C25.3494 30.1614 25.4396 29.8275 25.55 29.5H21C20.8674 29.5 20.7402 29.5527 20.6464 29.6464C20.5527 29.7402 20.5 29.8674 20.5 30C20.5 30.1326 20.5527 30.2598 20.6464 30.3536C20.7402 30.4473 20.8674 30.5 21 30.5Z" fill="#38BDF8"/>
<path d="M22.5 27.5H26.405C26.5897 27.1546 26.7951 26.8207 27.02 26.5H22.5C22.3674 26.5 22.2402 26.5527 22.1464 26.6464C22.0527 26.7402 22 26.8674 22 27C22 27.1326 22.0527 27.2598 22.1464 27.3536C22.2402 27.4473 22.3674 27.5 22.5 27.5Z" fill="#38BDF8"/>
<path d="M25.5 24.5H28.76C29.1582 24.138 29.5808 23.8038 30.025 23.5H25.5C25.3674 23.5 25.2402 23.5527 25.1464 23.6464C25.0527 23.7402 25 23.8674 25 24C25 24.1326 25.0527 24.2598 25.1464 24.3536C25.2402 24.4473 25.3674 24.5 25.5 24.5Z" fill="#38BDF8"/>
<path d="M22.5 35.5C22.3674 35.5 22.2402 35.5527 22.1464 35.6464C22.0527 35.7402 22 35.8674 22 36C22 36.1326 22.0527 36.2598 22.1464 36.3536C22.2402 36.4473 22.3674 36.5 22.5 36.5H25.55C25.4396 36.1725 25.3494 35.8386 25.28 35.5H22.5Z" fill="#38BDF8"/>
<path d="M26.405 38.5H21C20.8674 38.5 20.7402 38.5527 20.6464 38.6464C20.5527 38.7402 20.5 38.8674 20.5 39C20.5 39.1326 20.5527 39.2598 20.6464 39.3536C20.7402 39.4473 20.8674 39.5 21 39.5H27.02C26.7951 39.1793 26.5897 38.8454 26.405 38.5Z" fill="#38BDF8"/>
<path d="M25.5 41.5C25.3674 41.5 25.2402 41.5527 25.1464 41.6464C25.0527 41.7402 25 41.8674 25 42C25 42.1326 25.0527 42.2598 25.1464 42.3536C25.2402 42.4473 25.3674 42.5 25.5 42.5H30.025C29.5808 42.1962 29.1582 41.862 28.76 41.5H25.5Z" fill="#38BDF8"/>
</svg>
