<svg width="29" height="29" viewBox="0 0 29 29" fill="none" xmlns="http://www.w3.org/2000/svg">
<rect width="28.3679" height="28.3679" rx="14.184" fill="#E5E5E5" fill-opacity="0.7"/>
<g clip-path="url(#clip0_222_317)">
<path fill-rule="evenodd" clip-rule="evenodd" d="M18.6614 9.51024C17.4469 8.29419 15.8316 7.62415 14.1106 7.62354C10.5642 7.62354 7.67802 10.5094 7.67679 14.0567C7.67617 15.1907 7.97263 16.2976 8.53561 17.273L7.6228 20.6071L11.0334 19.7125C11.9731 20.2252 13.0312 20.4952 14.1078 20.4955H14.1106C17.6563 20.4955 20.5429 17.6093 20.5441 14.062C20.5447 12.3428 19.8762 10.7263 18.6614 9.51024ZM14.1106 19.409H14.1084C13.149 19.4087 12.2078 19.1508 11.3867 18.6636L11.1914 18.5477L9.1674 19.0786L9.70756 17.1051L9.58046 16.9028C9.04524 16.0514 8.76235 15.0673 8.76297 14.057C8.7642 11.1088 11.163 8.71003 14.1128 8.71003C15.541 8.71064 16.8836 9.26746 17.8932 10.2784C18.903 11.289 19.4585 12.6328 19.4579 14.0614C19.4566 17.0099 17.0579 19.409 14.1106 19.409ZM17.0437 15.4042C16.883 15.3237 16.0926 14.935 15.9452 14.8813C15.7977 14.8276 15.6907 14.8008 15.5836 14.9618C15.4766 15.1228 15.1684 15.4851 15.0746 15.5921C14.9808 15.6994 14.887 15.7127 14.7263 15.6321C14.5656 15.5517 14.0477 15.382 13.4334 14.8344C12.9557 14.4081 12.6329 13.8818 12.5392 13.7208C12.4454 13.5597 12.5293 13.4727 12.6095 13.3929C12.6817 13.3207 12.7702 13.205 12.8507 13.1112C12.9313 13.0174 12.9578 12.9502 13.0114 12.8431C13.0651 12.7358 13.0383 12.642 12.9982 12.5615C12.9581 12.481 12.6367 11.6897 12.5025 11.3679C12.3719 11.0545 12.2393 11.0971 12.1409 11.0919C12.0471 11.0872 11.9401 11.0863 11.8327 11.0863C11.7254 11.0863 11.5514 11.1264 11.4039 11.2874C11.2565 11.4485 10.8412 11.8375 10.8412 12.6284C10.8412 13.4194 11.4172 14.1841 11.4977 14.2915C11.5782 14.3988 12.6314 16.0224 14.2438 16.719C14.6273 16.8846 14.9269 16.9836 15.1604 17.0577C15.5454 17.1801 15.8958 17.1629 16.1728 17.1215C16.4816 17.0753 17.1239 16.7325 17.2578 16.3571C17.3916 15.9816 17.3916 15.6596 17.3516 15.5927C17.3115 15.5257 17.2041 15.4853 17.0434 15.4048L17.0437 15.4042Z" fill="black"/>
</g>
<defs>
<clipPath id="clip0_222_317">
<rect width="14.0959" height="14.0959" fill="white" transform="translate(7.03589 7.03516)"/>
</clipPath>
</defs>
</svg>
