<svg width="29" height="29" viewBox="0 0 29 29" fill="none" xmlns="http://www.w3.org/2000/svg">
<rect x="0.00012207" width="28.3679" height="28.3679" rx="14.184" fill="#E5E5E5" fill-opacity="0.7"/>
<path fill-rule="evenodd" clip-rule="evenodd" d="M18.6717 10.2165C19.178 10.3529 19.5761 10.7509 19.7107 11.2555C19.9555 12.1711 19.9555 14.0828 19.9555 14.0828C19.9555 14.0828 19.9555 15.9945 19.7107 16.9102C19.5742 17.4165 19.1763 17.8146 18.6717 17.9491C17.756 18.1939 14.0822 18.1939 14.0822 18.1939C14.0822 18.1939 10.4102 18.1939 9.49266 17.9491C8.98624 17.8127 8.58821 17.4147 8.45366 16.9102C8.20886 15.9945 8.20886 14.0828 8.20886 14.0828C8.20886 14.0828 8.20886 12.1711 8.45366 11.2555C8.59008 10.7491 8.98811 10.351 9.49266 10.2165C10.4102 9.97168 14.0822 9.97168 14.0822 9.97168C14.0822 9.97168 17.756 9.97168 18.6717 10.2165ZM15.9593 14.0825L12.9077 15.8446V12.3203L15.9593 14.0825Z" fill="black"/>
</svg>
